<?xml version="1.0" encoding="UTF-8" standalone="no"?>
<!-- Created with Inkscape (http://www.inkscape.org/) -->

<svg
   xmlns:dc="http://purl.org/dc/elements/1.1/"
   xmlns:cc="http://creativecommons.org/ns#"
   xmlns:rdf="http://www.w3.org/1999/02/22-rdf-syntax-ns#"
   xmlns:svg="http://www.w3.org/2000/svg"
   xmlns="http://www.w3.org/2000/svg"
   xmlns:sodipodi="http://sodipodi.sourceforge.net/DTD/sodipodi-0.dtd"
   xmlns:inkscape="http://www.inkscape.org/namespaces/inkscape"
   width="90mm"
   height="53.949001mm"
   viewBox="0 0 90 53.949001"
   version="1.1"
   id="svg900"
   inkscape:version="0.92.4 (5da689c313, 2019-01-14)"
   sodipodi:docname="camera_on.svg">
  <defs
     id="defs894" />
  <sodipodi:namedview
     id="base"
     pagecolor="#ffffff"
     bordercolor="#666666"
     borderopacity="1.0"
     inkscape:pageopacity="0.0"
     inkscape:pageshadow="2"
     inkscape:zoom="0.84273522"
     inkscape:cx="259.20348"
     inkscape:cy="131.68057"
     inkscape:document-units="mm"
     inkscape:current-layer="layer1"
     showgrid="false"
     inkscape:window-width="1600"
     inkscape:window-height="837"
     inkscape:window-x="-8"
     inkscape:window-y="-8"
     inkscape:window-maximized="1" />
  <metadata
     id="metadata897">
    <rdf:RDF>
      <cc:Work
         rdf:about="">
        <dc:format>image/svg+xml</dc:format>
        <dc:type
           rdf:resource="http://purl.org/dc/dcmitype/StillImage" />
        <dc:title></dc:title>
      </cc:Work>
    </rdf:RDF>
  </metadata>
  <g
     inkscape:label="Layer 1"
     inkscape:groupmode="layer"
     id="layer1"
     transform="translate(0,-243.051)">
    <path
       style="opacity:1;vector-effect:none;fill:#ff0000;fill-opacity:1;fill-rule:evenodd;stroke:none;stroke-width:0.38046545;stroke-linecap:round;stroke-linejoin:round;stroke-miterlimit:4;stroke-dasharray:none;stroke-dashoffset:0;stroke-opacity:1;paint-order:stroke fill markers"
       d="m 27.691157,253.76734 c -0.911682,0 -1.671564,0.75916 -1.671564,1.67084 v 6.41991 c 0,0.91168 0.759882,1.67156 1.671564,1.67156 h 8.015051 c 0.911682,0 1.671564,-0.75988 1.671564,-1.67156 v -6.41991 c 0,-0.91168 -0.759882,-1.67084 -1.671564,-1.67084 z"
       id="rect817"
       inkscape:connector-curvature="0" />
    <path
       style="fill:#6c5353;stroke-width:0.26458332"
       d="m 56.847275,258.34412 c -8.281458,0 -14.975314,6.69386 -14.975314,14.97532 0,8.28146 6.693856,14.97531 14.975314,14.97531 8.281458,0 14.975829,-6.69385 14.975829,-14.97531 0,-8.255 -6.694371,-14.97532 -14.975829,-14.97532 z m 0,2.27583 a 12.699513,12.699513 0 0 1 12.699481,12.69949 12.699513,12.699513 0 0 1 -12.699481,12.69948 12.699513,12.699513 0 0 1 -12.699484,-12.69948 12.699513,12.699513 0 0 1 12.699484,-12.69949 z"
       id="path2"
       inkscape:connector-curvature="0" />
    <path
       style="fill:#866767;stroke:none;stroke-width:0.26499999;stroke-miterlimit:4;stroke-dasharray:none;stroke-opacity:1;fill-opacity:1"
       id="path4"
       d="M 85.34308,249.37477 H 71.637669 l -1.375834,-3.96875 c -0.502708,-1.42875 -1.825625,-2.35479 -3.33375,-2.35479 H 46.237669 c -1.508125,0 -2.831042,0.9525 -3.33375,2.35479 l -1.375833,3.96875 H 27.822669 c -2.566459,0 -4.683125,2.11667 -4.683125,4.68312 v 38.25875 c 0,2.56646 2.116666,4.68313 4.683125,4.68313 H 85.31663 c 2.56645,0 4.68312,-2.11667 4.68312,-4.68313 v -38.25875 c 0.0265,-2.56645 -2.06375,-4.68312 -4.65667,-4.68312 z m -49.688744,11.50937 c 0,0.635 -0.529167,1.16417 -1.164167,1.16417 H 28.90746 c -0.635,0 -1.164166,-0.52917 -1.164166,-1.16417 v -4.47145 c 0,-0.635 0.529166,-1.16417 1.164166,-1.16417 h 5.582709 c 0.635,0 1.164167,0.52917 1.164167,1.16417 z m 21.325416,30.13605 c -9.8425,0 -17.832916,-7.99042 -17.832916,-17.83292 0,-9.8425 7.990416,-17.83292 17.832916,-17.83292 9.8425,0 17.832916,7.99042 17.832916,17.83292 0,9.8425 -7.990416,17.83292 -17.832916,17.83292 z"
       inkscape:connector-curvature="0"
       sodipodi:nodetypes="sccssccsssssscsssssssssssssss" />
  </g>
</svg>
