<?xml version="1.0" encoding="UTF-8" standalone="no"?>
<!-- Created with Inkscape (http://www.inkscape.org/) -->

<svg
   xmlns:dc="http://purl.org/dc/elements/1.1/"
   xmlns:cc="http://creativecommons.org/ns#"
   xmlns:rdf="http://www.w3.org/1999/02/22-rdf-syntax-ns#"
   xmlns:svg="http://www.w3.org/2000/svg"
   xmlns="http://www.w3.org/2000/svg"
   xmlns:sodipodi="http://sodipodi.sourceforge.net/DTD/sodipodi-0.dtd"
   xmlns:inkscape="http://www.inkscape.org/namespaces/inkscape"
   width="66.860001mm"
   height="53.949001mm"
   viewBox="0 0 66.860001 53.949001"
   version="1.1"
   id="svg900"
   inkscape:version="0.92.4 (5da689c313, 2019-01-14)"
   sodipodi:docname="camera_on.svg">
  <defs
     id="defs894" />
  <sodipodi:namedview
     id="base"
     pagecolor="#ffffff"
     bordercolor="#666666"
     borderopacity="1.0"
     inkscape:pageopacity="0.0"
     inkscape:pageshadow="2"
     inkscape:zoom="1.2917162"
     inkscape:cx="169.29336"
     inkscape:cy="97.441048"
     inkscape:document-units="mm"
     inkscape:current-layer="layer1"
     showgrid="false"
     inkscape:window-width="1600"
     inkscape:window-height="837"
     inkscape:window-x="-8"
     inkscape:window-y="-8"
     inkscape:window-maximized="1" />
  <metadata
     id="metadata897">
    <rdf:RDF>
      <cc:Work
         rdf:about="">
        <dc:format>image/svg+xml</dc:format>
        <dc:type
           rdf:resource="http://purl.org/dc/dcmitype/StillImage" />
        <dc:title />
      </cc:Work>
    </rdf:RDF>
  </metadata>
  <g
     inkscape:label="Layer 1"
     inkscape:groupmode="layer"
     id="layer1"
     transform="translate(0,-243.051)">
    <rect
       style="opacity:1;vector-effect:none;fill:#ff0000;fill-opacity:1;fill-rule:evenodd;stroke:none;stroke-width:1.05523252;stroke-linecap:round;stroke-linejoin:round;stroke-miterlimit:4;stroke-dasharray:none;stroke-dashoffset:0;stroke-opacity:1;paint-order:stroke fill markers"
       id="rect815"
       width="10.426371"
       height="7.5371356"
       x="3.7685678"
       y="253.9127" />
    <path
       style="fill:#6c5353;stroke-width:0.99999994"
       d="M 127.39844 57.800781 C 96.098439 57.800781 70.798828 83.100384 70.798828 114.40039 C 70.798828 145.7004 96.098439 171 127.39844 171 C 158.69844 171 184 145.7004 184 114.40039 C 184 83.200391 158.69844 57.800781 127.39844 57.800781 z M 127.39844 66.402344 A 47.998161 47.998161 0 0 1 175.39648 114.40039 A 47.998161 47.998161 0 0 1 127.39844 162.39844 A 47.998161 47.998161 0 0 1 79.400391 114.40039 A 47.998161 47.998161 0 0 1 127.39844 66.402344 z "
       transform="matrix(0.26458333,0,0,0.26458333,0,243.051)"
       id="path2" />
    <path
       style="fill:#6c5353;stroke-width:0.265;stroke:none;stroke-opacity:1;stroke-miterlimit:4;stroke-dasharray:none"
       id="path4"
       d="M 62.203313,249.37477 H 48.497897 l -1.375834,-3.96875 c -0.502708,-1.42875 -1.825625,-2.35479 -3.33375,-2.35479 H 23.097897 c -1.508125,0 -2.831042,0.9525 -3.33375,2.35479 l -1.375833,3.96875 H 4.6828971 c -2.5664583,0 -4.683124967,2.11667 -4.683124967,4.68312 v 38.25875 c 0,2.56646 2.116666667,4.68313 4.683124967,4.68313 H 62.176855 c 2.566458,0 4.683125,-2.11667 4.683125,-4.68313 v -38.25875 c 0.02646,-2.56645 -2.06375,-4.68312 -4.656667,-4.68312 z m -49.688749,8.33437 c 0,0.635 -0.529167,1.16417 -1.164167,1.16417 H 5.7676887 c -0.635,0 -1.1641666,-0.52917 -1.1641666,-1.16417 v -1.29645 c 0,-0.635 0.5291666,-1.16417 1.1641666,-1.16417 h 5.5827083 c 0.635,0 1.164167,0.52917 1.164167,1.16417 z m 21.325416,33.31105 c -9.8425,0 -17.832916,-7.99042 -17.832916,-17.83292 0,-9.8425 7.990416,-17.83292 17.832916,-17.83292 9.8425,0 17.832916,7.99042 17.832916,17.83292 0,9.8425 -7.990416,17.83292 -17.832916,17.83292 z"
       inkscape:connector-curvature="0" />
  </g>
</svg>
