<?xml version="1.0" encoding="UTF-8" standalone="no"?>
<!-- Generator: Adobe Illustrator 18.0.0, SVG Export Plug-In . SVG Version: 6.00 Build 0)  -->

<svg
   xmlns:dc="http://purl.org/dc/elements/1.1/"
   xmlns:cc="http://creativecommons.org/ns#"
   xmlns:rdf="http://www.w3.org/1999/02/22-rdf-syntax-ns#"
   xmlns:svg="http://www.w3.org/2000/svg"
   xmlns="http://www.w3.org/2000/svg"
   xmlns:sodipodi="http://sodipodi.sourceforge.net/DTD/sodipodi-0.dtd"
   xmlns:inkscape="http://www.inkscape.org/namespaces/inkscape"
   version="1.1"
   id="Capa_1"
   x="0px"
   y="0px"
   viewBox="0 0 58 51.414001"
   xml:space="preserve"
   sodipodi:docname="chat_icon_dots.svg"
   inkscape:version="0.92.4 (5da689c313, 2019-01-14)"
   width="58"
   height="51.414001"><metadata
   id="metadata47"><rdf:RDF><cc:Work
       rdf:about=""><dc:format>image/svg+xml</dc:format><dc:type
         rdf:resource="http://purl.org/dc/dcmitype/StillImage" /><dc:title></dc:title></cc:Work></rdf:RDF></metadata><defs
   id="defs45">
	
	
	
	
</defs><sodipodi:namedview
   pagecolor="#ffffff"
   bordercolor="#666666"
   borderopacity="1"
   objecttolerance="10"
   gridtolerance="10"
   guidetolerance="10"
   inkscape:pageopacity="0"
   inkscape:pageshadow="2"
   inkscape:window-width="1600"
   inkscape:window-height="837"
   id="namedview43"
   showgrid="false"
   inkscape:zoom="6.1215778"
   inkscape:cx="22.036926"
   inkscape:cy="29"
   inkscape:window-x="-8"
   inkscape:window-y="-8"
   inkscape:window-maximized="1"
   inkscape:current-layer="Capa_1" />
<path
   style="opacity:1;vector-effect:none;fill:#282828;fill-opacity:1;fill-rule:evenodd;stroke:none;stroke-width:1.00157475;stroke-linecap:round;stroke-linejoin:round;stroke-miterlimit:4;stroke-dasharray:none;stroke-dashoffset:0;stroke-opacity:1;paint-order:stroke fill markers"
   d="M 15 18.505859 A 3 3 0 0 0 12 21.505859 A 3 3 0 0 0 15 24.505859 A 3 3 0 0 0 18 21.505859 A 3 3 0 0 0 15 18.505859 z M 29 18.505859 A 3 3 0 0 0 26 21.505859 A 3 3 0 0 0 29 24.505859 A 3 3 0 0 0 32 21.505859 A 3 3 0 0 0 29 18.505859 z M 43 18.505859 A 3 3 0 0 0 40 21.505859 A 3 3 0 0 0 43 24.505859 A 3 3 0 0 0 46 21.505859 A 3 3 0 0 0 43 18.505859 z "
   id="rect827" />
<g
   id="g12"
   transform="translate(0,-6.586)">
</g>
<g
   id="g14"
   transform="translate(0,-6.586)">
</g>
<g
   id="g16"
   transform="translate(0,-6.586)">
</g>
<g
   id="g18"
   transform="translate(0,-6.586)">
</g>
<g
   id="g20"
   transform="translate(0,-6.586)">
</g>
<g
   id="g22"
   transform="translate(0,-6.586)">
</g>
<g
   id="g24"
   transform="translate(0,-6.586)">
</g>
<g
   id="g26"
   transform="translate(0,-6.586)">
</g>
<g
   id="g28"
   transform="translate(0,-6.586)">
</g>
<g
   id="g30"
   transform="translate(0,-6.586)">
</g>
<g
   id="g32"
   transform="translate(0,-6.586)">
</g>
<g
   id="g34"
   transform="translate(0,-6.586)">
</g>
<g
   id="g36"
   transform="translate(0,-6.586)">
</g>
<g
   id="g38"
   transform="translate(0,-6.586)">
</g>
<g
   id="g40"
   transform="translate(0,-6.586)">
</g>
</svg>