<?xml version="1.0" encoding="UTF-8" standalone="no"?>
<!-- Generator: Adobe Illustrator 18.0.0, SVG Export Plug-In . SVG Version: 6.00 Build 0)  -->

<svg
   xmlns:dc="http://purl.org/dc/elements/1.1/"
   xmlns:cc="http://creativecommons.org/ns#"
   xmlns:rdf="http://www.w3.org/1999/02/22-rdf-syntax-ns#"
   xmlns:svg="http://www.w3.org/2000/svg"
   xmlns="http://www.w3.org/2000/svg"
   xmlns:sodipodi="http://sodipodi.sourceforge.net/DTD/sodipodi-0.dtd"
   xmlns:inkscape="http://www.inkscape.org/namespaces/inkscape"
   version="1.1"
   id="Capa_1"
   x="0px"
   y="0px"
   viewBox="0 0 58 51.414001"
   xml:space="preserve"
   sodipodi:docname="chat_icon_cutout.svg"
   inkscape:version="0.92.4 (5da689c313, 2019-01-14)"
   width="58"
   height="51.414001"><metadata
   id="metadata47"><rdf:RDF><cc:Work
       rdf:about=""><dc:format>image/svg+xml</dc:format><dc:type
         rdf:resource="http://purl.org/dc/dcmitype/StillImage" /><dc:title></dc:title></cc:Work></rdf:RDF></metadata><defs
   id="defs45">
	
	
	
	
</defs><sodipodi:namedview
   pagecolor="#ffffff"
   bordercolor="#666666"
   borderopacity="1"
   objecttolerance="10"
   gridtolerance="10"
   guidetolerance="10"
   inkscape:pageopacity="0"
   inkscape:pageshadow="2"
   inkscape:window-width="1600"
   inkscape:window-height="837"
   id="namedview43"
   showgrid="false"
   inkscape:zoom="4.3286092"
   inkscape:cx="22.036926"
   inkscape:cy="29"
   inkscape:window-x="-8"
   inkscape:window-y="-8"
   inkscape:window-maximized="1"
   inkscape:current-layer="Capa_1" />
<path
   style="fill:#e0e0e0;fill-opacity:1"
   d="m 53,0 c 2.722,0 5,2.278 5,5 v 33 c 0,2.722 -2.278,5 -5,5 H 25.318359 l 4.439453,-5.160157 c 0.36,-0.417999 0.313532,-1.050156 -0.105468,-1.410156 -0.419,-0.36 -1.05211,-0.312531 -1.41211,0.105469 L 23.242188,42.345703 15,51.414062 V 43 H 13 7 5 C 2.278,43 0,40.722 0,38 V 5 C 0,2.278 2.278,0 5,0 Z M 43,18.505859 a 3,3 0 0 0 -3,3 3,3 0 0 0 3,3 3,3 0 0 0 3,-3 3,3 0 0 0 -3,-3 z m -14,0 a 3,3 0 0 0 -3,3 3,3 0 0 0 3,3 3,3 0 0 0 3,-3 3,3 0 0 0 -3,-3 z m -14,0 a 3,3 0 0 0 -3,3 3,3 0 0 0 3,3 3,3 0 0 0 3,-3 3,3 0 0 0 -3,-3 z"
   id="path2"
   inkscape:connector-curvature="0" />
<g
   id="g12"
   transform="translate(0,-6.586)">
</g>
<g
   id="g14"
   transform="translate(0,-6.586)">
</g>
<g
   id="g16"
   transform="translate(0,-6.586)">
</g>
<g
   id="g18"
   transform="translate(0,-6.586)">
</g>
<g
   id="g20"
   transform="translate(0,-6.586)">
</g>
<g
   id="g22"
   transform="translate(0,-6.586)">
</g>
<g
   id="g24"
   transform="translate(0,-6.586)">
</g>
<g
   id="g26"
   transform="translate(0,-6.586)">
</g>
<g
   id="g28"
   transform="translate(0,-6.586)">
</g>
<g
   id="g30"
   transform="translate(0,-6.586)">
</g>
<g
   id="g32"
   transform="translate(0,-6.586)">
</g>
<g
   id="g34"
   transform="translate(0,-6.586)">
</g>
<g
   id="g36"
   transform="translate(0,-6.586)">
</g>
<g
   id="g38"
   transform="translate(0,-6.586)">
</g>
<g
   id="g40"
   transform="translate(0,-6.586)">
</g>
</svg>