<?xml version="1.0" encoding="UTF-8" standalone="no"?>
<!-- Created with Inkscape (http://www.inkscape.org/) -->

<svg
   xmlns:dc="http://purl.org/dc/elements/1.1/"
   xmlns:cc="http://creativecommons.org/ns#"
   xmlns:rdf="http://www.w3.org/1999/02/22-rdf-syntax-ns#"
   xmlns:svg="http://www.w3.org/2000/svg"
   xmlns="http://www.w3.org/2000/svg"
   xmlns:sodipodi="http://sodipodi.sourceforge.net/DTD/sodipodi-0.dtd"
   xmlns:inkscape="http://www.inkscape.org/namespaces/inkscape"
   width="121.21mm"
   height="146.07001mm"
   viewBox="0 0 121.21 146.07001"
   version="1.1"
   id="svg20722"
   inkscape:version="0.92.4 (5da689c313, 2019-01-14)"
   sodipodi:docname="mouth_front.svg">
  <defs
     id="defs20716" />
  <sodipodi:namedview
     id="base"
     pagecolor="#ffffff"
     bordercolor="#666666"
     borderopacity="1.0"
     inkscape:pageopacity="0.0"
     inkscape:pageshadow="2"
     inkscape:zoom="0.74466752"
     inkscape:cx="180.50221"
     inkscape:cy="480.5369"
     inkscape:document-units="mm"
     inkscape:current-layer="layer1"
     showgrid="false"
     inkscape:window-width="1600"
     inkscape:window-height="837"
     inkscape:window-x="-8"
     inkscape:window-y="-8"
     inkscape:window-maximized="1" />
  <metadata
     id="metadata20719">
    <rdf:RDF>
      <cc:Work
         rdf:about="">
        <dc:format>image/svg+xml</dc:format>
        <dc:type
           rdf:resource="http://purl.org/dc/dcmitype/StillImage" />
        <dc:title></dc:title>
      </cc:Work>
    </rdf:RDF>
  </metadata>
  <g
     inkscape:label="Layer 1"
     inkscape:groupmode="layer"
     id="layer1"
     transform="translate(0,-150.93)">
    <path
       id="path89091"
       style="clip-rule:evenodd;fill:#dc7aca;fill-opacity:1;fill-rule:evenodd;stroke:none;stroke-width:1;stroke-miterlimit:4;stroke-dasharray:none;stroke-opacity:1"
       d="m 23.943198,202.4373 c -1.81793,-0.14717 -3.68062,-0.65882 -5.450059,-1.18252 l 5.617822,23.37963 z"
       class="st4"
       inkscape:connector-curvature="0" />
    <path
       id="path89093"
       style="clip-rule:evenodd;fill:#dc7aca;fill-opacity:1;fill-rule:evenodd;stroke:none;stroke-width:1;stroke-miterlimit:4;stroke-dasharray:none;stroke-opacity:1"
       d="m 58.443932,197.72333 c -3.183613,0 -8.224328,0 -14.237815,-0.19937 3.183607,10.75861 8.578062,28.68966 8.578062,28.68966 z"
       class="st4"
       inkscape:connector-curvature="0" />
    <path
       id="path89095"
       style="clip-rule:evenodd;fill:#dc7aca;fill-opacity:1;fill-rule:evenodd;stroke:none;stroke-width:1;stroke-miterlimit:4;stroke-dasharray:none;stroke-opacity:1"
       d="m 13.644983,199.61892 c -2.065141,-0.56188 -4.0875457,-1.40099 -5.9586961,-2.25877 l 5.6692461,22.41155 z"
       class="st4"
       inkscape:connector-curvature="0" />
    <path
       id="path89087"
       style="clip-rule:evenodd;fill:#dc7aca;fill-opacity:1;fill-rule:evenodd;stroke:none;stroke-width:1;stroke-miterlimit:4;stroke-dasharray:none;stroke-opacity:1"
       d="m 111.08844,198.48431 c -1.86271,0.51187 -3.68065,0.65905 -5.45006,1.18251 l -0.0745,22.20883 z"
       class="st4"
       inkscape:connector-curvature="0" />
    <path
       id="path89085"
       style="clip-rule:evenodd;fill:#dc7aca;fill-opacity:1;fill-rule:evenodd;stroke:none;stroke-width:1;stroke-miterlimit:4;stroke-dasharray:none;stroke-opacity:1"
       d="m 93.445191,198.82838 c -3.350937,0.40405 -6.593365,0.54966 -9.651644,0.44607 l 2.647301,25.33561 z"
       class="st4"
       inkscape:connector-curvature="0" />
    <path
       id="path89097"
       style="clip-rule:evenodd;fill:#dc7aca;fill-opacity:1;fill-rule:evenodd;stroke:none;stroke-width:1;stroke-miterlimit:4;stroke-dasharray:none;stroke-opacity:1"
       d="m 37.663485,199.27445 c -3.058268,0.1037 -6.376321,-0.0326 -9.651644,-0.44607 l 7.004343,25.78168 z"
       class="st4"
       inkscape:connector-curvature="0" />
    <path
       id="path89099"
       style="clip-rule:evenodd;display:inline;fill:#dc7aca;fill-opacity:1;fill-rule:evenodd;stroke:none;stroke-width:1;stroke-miterlimit:4;stroke-dasharray:none;stroke-opacity:1"
       d="m 62.262391,197.72333 c 3.183613,0 8.224328,0 14.237815,-0.19937 -3.183608,10.75861 -8.578063,28.68966 -8.578063,28.68966 z"
       class="st4"
       inkscape:connector-curvature="0" />
    <path
       id="path89089"
       style="clip-rule:evenodd;fill:#dc7aca;fill-opacity:1;fill-rule:evenodd;stroke:none;stroke-width:1;stroke-miterlimit:4;stroke-dasharray:none;stroke-opacity:1"
       d="m 102.21773,199.90722 c -1.94677,0.84837 -3.893536,1.69676 -5.958689,2.25874 l 0.289457,20.15274 z"
       class="st4"
       inkscape:connector-curvature="0" />
    <path
       style="opacity:1;vector-effect:none;fill:#a00084;fill-opacity:1;fill-rule:evenodd;stroke:none;stroke-width:1;stroke-linecap:butt;stroke-linejoin:miter;stroke-miterlimit:4;stroke-dasharray:none;stroke-dashoffset:0;stroke-opacity:1;paint-order:stroke fill markers"
       d="m 121.21,198.62374 c 1e-5,10.89071 -6.78344,9.16165 -17.75079,7.88491 -10.967347,-1.27674 -26.1186,-8.45116 -42.85421,-8.45116 -16.73561,0 -31.886862,7.17442 -42.85421,8.45116 C 6.7834422,207.78539 -2.5460664e-6,209.51445 0,198.62374 5.0921328e-6,176.84232 27.133785,150.93 60.605,150.93 c 33.471215,0 60.605,25.91232 60.605,47.69374"
       id="path22114"
       inkscape:connector-curvature="0"
       sodipodi:nodetypes="csssssc" />
    <path
       style="clip-rule:evenodd;opacity:0.903;fill:#cf00ab;fill-opacity:1;fill-rule:evenodd;stroke-width:0.04000184"
       d="m 1.5532746,206.59205 c 0,0 -4.1844606,-7.50772 1.1818903,-6.01849 26.8645431,7.45518 20.2980881,-8.28508 58.5304911,-8.28508 38.280195,0 30.591668,15.74026 57.679924,8.34679 4.93923,-1.34811 0.25964,6.08267 0.25964,6.08267 -9.164,2.53575 -28.994948,-5.57889 -57.939558,-5.57889 -28.94461,0 -50.988338,9.15839 -59.7123874,5.45292 z"
       id="path89101"
       inkscape:connector-curvature="0"
       sodipodi:nodetypes="cssscscc" />
  </g>
</svg>
