<?xml version="1.0" encoding="UTF-8" standalone="no"?>
<!-- Created with Inkscape (http://www.inkscape.org/) -->

<svg
   xmlns:dc="http://purl.org/dc/elements/1.1/"
   xmlns:cc="http://creativecommons.org/ns#"
   xmlns:rdf="http://www.w3.org/1999/02/22-rdf-syntax-ns#"
   xmlns:svg="http://www.w3.org/2000/svg"
   xmlns="http://www.w3.org/2000/svg"
   xmlns:sodipodi="http://sodipodi.sourceforge.net/DTD/sodipodi-0.dtd"
   xmlns:inkscape="http://www.inkscape.org/namespaces/inkscape"
   width="121.21mm"
   height="96.07mm"
   viewBox="0 0 121.21 96.07"
   version="1.1"
   id="svg20722"
   inkscape:version="0.92.4 (5da689c313, 2019-01-14)"
   sodipodi:docname="fangs_back.svg">
  <defs
     id="defs20716" />
  <sodipodi:namedview
     id="base"
     pagecolor="#ffffff"
     bordercolor="#666666"
     borderopacity="1.0"
     inkscape:pageopacity="0.0"
     inkscape:pageshadow="2"
     inkscape:zoom="1.2142349"
     inkscape:cx="153.48256"
     inkscape:cy="321.86351"
     inkscape:document-units="mm"
     inkscape:current-layer="g22078"
     showgrid="false"
     inkscape:window-width="1600"
     inkscape:window-height="837"
     inkscape:window-x="-8"
     inkscape:window-y="-8"
     inkscape:window-maximized="1" />
  <metadata
     id="metadata20719">
    <rdf:RDF>
      <cc:Work
         rdf:about="">
        <dc:format>image/svg+xml</dc:format>
        <dc:type
           rdf:resource="http://purl.org/dc/dcmitype/StillImage" />
        <dc:title></dc:title>
      </cc:Work>
    </rdf:RDF>
  </metadata>
  <g
     inkscape:label="Layer 1"
     inkscape:groupmode="layer"
     id="layer1"
     transform="translate(0,-200.93)">
    <g
       id="g22078"
       transform="translate(0,-32.4345)">
      <path
         sodipodi:nodetypes="cccccccccccccccsccc"
         inkscape:connector-curvature="0"
         class="st5"
         d="m 111.97485,235.64268 -5.71517,0.83828 c -1.90506,0.2286 -3.96258,0.45725 -6.02004,0.68587 l -4.343565,0.38107 c -1.371603,0.0762 -2.819497,0.22859 -4.191158,0.30483 l -9.525281,0.45725 c -2.133696,0.0762 -4.114984,0.15242 -6.096215,0.15242 H 44.992663 c -1.905056,-0.0762 -3.962519,-0.0762 -6.096215,-0.15242 l -9.525339,-0.45725 c -1.371603,-0.0762 -2.819497,-0.15242 -4.1911,-0.30483 l -4.343565,-0.38101 c -2.057463,-0.2286 -4.038752,-0.38102 -6.02004,-0.68587 l -5.6389946,-0.83828 c -2.9719039,-0.53343 -5.6389941,-1.14312 -7.9250963,-1.90519 0,0 1.3716613,47.3249 59.1333219,47.3249 57.761665,0 59.133325,-47.3249 59.133325,-47.3249 -1.90506,0.76207 -4.64838,1.37174 -7.54411,1.90519 z"
         style="clip-rule:evenodd;fill:#20001b;fill-opacity:1;fill-rule:evenodd;stroke-width:0.03569504"
         id="path89065" />
      <path
         sodipodi:nodetypes="szszczs"
         inkscape:connector-curvature="0"
         id="path28017-3"
         d="m 91.01952,274.33409 c 0,6.68296 -9.296343,19.67451 -30.41455,20.17148 -21.118243,0.49697 -30.414514,-13.48852 -30.414514,-20.17148 0,-3.34151 9.008598,-10.95977 12.434577,-13.14955 3.425978,-2.18979 13.662906,-3.79258 17.979937,1.67242 2.495352,-5.92045 14.553922,-3.86214 17.979937,-1.67242 3.426015,2.18971 12.434613,9.80804 12.434613,13.14955 z"
         style="clip-rule:evenodd;display:inline;opacity:1;vector-effect:none;fill:#c04044;fill-opacity:1;fill-rule:evenodd;stroke:none;stroke-width:0.50006247;stroke-linecap:round;stroke-linejoin:round;stroke-miterlimit:4;stroke-dasharray:none;stroke-dashoffset:0;stroke-opacity:1;paint-order:stroke fill markers" />
      <path
         sodipodi:nodetypes="ccczczc"
         inkscape:connector-curvature="0"
         id="rect28039-9"
         d="m 57.360252,260.35283 c 1.972846,0.0632 3.244718,2.50413 3.244718,2.50413 0,0 1.42664,-1.92897 2.7842,-2.80467 0.303509,5.44016 0.04152,6.98681 -0.271542,12.03733 -0.313062,5.05053 -2.512548,4.92512 -2.512548,4.92512 0,0 -1.665405,-0.0581 -2.512585,-4.92512 -0.84718,-4.86694 -1.126805,-7.64593 -0.732243,-11.73679 z"
         style="clip-rule:evenodd;display:inline;opacity:1;vector-effect:none;fill:#903039;fill-opacity:1;fill-rule:evenodd;stroke:none;stroke-width:0.50006247;stroke-linecap:round;stroke-linejoin:round;stroke-miterlimit:4;stroke-dasharray:none;stroke-dashoffset:0;stroke-opacity:1;paint-order:stroke fill markers" />
      <path
         inkscape:connector-curvature="0"
         class="st4"
         d="m 45.694723,281.03876 c -0.594583,-0.2548 4.58696,-12.65743 4.58696,-12.65743 l 4.502022,12.65743 c 0,0 -3.312804,1.95383 -9.088982,0 z"
         style="clip-rule:evenodd;fill:#f0f0f0;fill-opacity:1;fill-rule:evenodd;stroke:#ffffff;stroke-width:0.1322917;stroke-miterlimit:4;stroke-dasharray:none;stroke-opacity:1"
         id="path89069" />
      <path
         inkscape:connector-curvature="0"
         class="st4"
         d="m 17.33107,267.77792 5.791406,-6.70627 v 9.75457 c 0,0 -4.876971,0.60966 -5.791406,-3.0483 z"
         style="clip-rule:evenodd;fill:#f0f0f0;fill-opacity:1;fill-rule:evenodd;stroke:#8b8b8b;stroke-width:1;stroke-miterlimit:4;stroke-dasharray:none;stroke-opacity:1"
         id="path89071" />
      <path
         inkscape:connector-curvature="0"
         class="st4"
         d="m 9.1773805,258.2489 6.2486215,-2.36243 -1.219243,8.30662 c 0.07617,0 -3.200514,-1.21932 -5.0293785,-5.94419 z"
         style="clip-rule:evenodd;fill:#f0f0f0;fill-opacity:1;fill-rule:evenodd;stroke:#8b8b8b;stroke-width:1;stroke-miterlimit:4;stroke-dasharray:none;stroke-opacity:1"
         id="path89073" />
      <path
         inkscape:connector-curvature="0"
         class="st4"
         d="m 75.687713,280.26394 c 0.594583,-0.2548 -4.586965,-12.65743 -4.586965,-12.65743 l -4.502016,12.65743 c -0.08491,0 3.22786,1.95383 9.088981,0 z"
         style="clip-rule:evenodd;fill:#f0f0f0;fill-opacity:1;fill-rule:evenodd;stroke:#ffffff;stroke-width:0.1322917;stroke-miterlimit:4;stroke-dasharray:none;stroke-opacity:1"
         id="path89077" />
      <path
         inkscape:connector-curvature="0"
         class="st4"
         d="m 103.97356,267.77792 -5.791412,-6.70627 v 9.75457 c 0,0 4.953172,0.60966 5.791412,-3.0483 z"
         style="clip-rule:evenodd;fill:#f0f0f0;fill-opacity:1;fill-rule:evenodd;stroke:#8b8b8b;stroke-width:1;stroke-miterlimit:4;stroke-dasharray:none;stroke-opacity:1"
         id="path89079" />
      <path
         inkscape:connector-curvature="0"
         class="st4"
         d="m 112.12724,258.2489 -6.24862,-2.36243 1.21925,8.30662 c 0,0 3.27671,-1.21932 5.02937,-5.94419 z"
         style="clip-rule:evenodd;fill:#f0f0f0;fill-opacity:1;fill-rule:evenodd;stroke:#8b8b8b;stroke-width:1;stroke-miterlimit:4;stroke-dasharray:none;stroke-opacity:1"
         id="path89081" />
      <path
         sodipodi:nodetypes="cscsc"
         inkscape:connector-curvature="0"
         id="path89105"
         d="m 1.4945156,233.3645 c 0,0 -1.52180661,63.6355 59.3642114,63.6355 60.962153,0 58.910163,-63.6355 58.910163,-63.6355 0,0 -1.37553,47.33699 -59.137171,47.33699 -57.7616727,0 -59.1372034,-47.33699 -59.1372034,-47.33699 z"
         style="clip-rule:evenodd;display:inline;fill:#a00084;fill-opacity:1;fill-rule:evenodd;stroke-width:0.03569504" />
      <path
         sodipodi:nodetypes="szszczs"
         inkscape:connector-curvature="0"
         id="path28017-3-9"
         d="m 83.623708,274.33409 c 0,6.68296 -7.03578,54.59951 -23.018731,55.09648 -15.982983,0.49697 -23.018706,-48.41352 -23.018706,-55.09648 0,-3.34151 6.818003,-10.95977 9.410896,-13.14955 2.592893,-2.18979 10.340537,-3.79258 13.60781,1.67242 1.888563,-5.92045 11.014884,-3.86214 13.607805,-1.67242 2.592921,2.18971 9.410926,9.80804 9.410926,13.14955 z"
         style="clip-rule:evenodd;display:inline;opacity:1;vector-effect:none;fill:#c04044;fill-opacity:1;fill-rule:evenodd;stroke:none;stroke-width:0.50006247;stroke-linecap:round;stroke-linejoin:round;stroke-miterlimit:4;stroke-dasharray:none;stroke-dashoffset:0;stroke-opacity:1;paint-order:stroke fill markers" />
      <path
         inkscape:connector-curvature="0"
         class="st4"
         d="m 36.381748,278.23292 -2.971904,-13.26013 -4.876972,9.06871 c 0,0 -0.45722,3.42934 7.848876,4.19142 z"
         style="clip-rule:evenodd;fill:#f0f0f0;fill-opacity:1;fill-rule:evenodd;stroke:#8b8b8b;stroke-width:1;stroke-miterlimit:4;stroke-dasharray:none;stroke-opacity:1"
         id="path89067" />
      <path
         inkscape:connector-curvature="0"
         class="st4"
         d="m 84.922877,278.23292 2.97191,-13.26013 4.876972,9.06871 c 0.07623,0 0.533395,3.42934 -7.848882,4.19142 z"
         style="clip-rule:evenodd;fill:#f0f0f0;fill-opacity:1;fill-rule:evenodd;stroke:#8b8b8b;stroke-width:1;stroke-miterlimit:4;stroke-dasharray:none;stroke-opacity:1"
         id="path89075" />
      <path
         sodipodi:nodetypes="ccczczc"
         inkscape:connector-curvature="0"
         id="rect28039-9-7"
         d="m 57.360252,260.35283 c 1.972847,0.0632 3.244718,2.50413 3.244718,2.50413 0,0 1.42664,-1.92897 2.784201,-2.80467 0.303509,5.44016 -0.59348,5.08181 -0.906543,10.13233 -0.313061,5.05053 -1.877547,29.05512 -1.877547,29.05512 0,0 -1.030406,-24.1881 -1.877586,-29.05512 -0.84718,-4.86694 -1.761805,-5.74093 -1.367243,-9.83179 z"
         style="clip-rule:evenodd;display:inline;opacity:1;vector-effect:none;fill:#903039;fill-opacity:1;fill-rule:evenodd;stroke:none;stroke-width:0.50006247;stroke-linecap:round;stroke-linejoin:round;stroke-miterlimit:4;stroke-dasharray:none;stroke-dashoffset:0;stroke-opacity:1;paint-order:stroke fill markers" />
    </g>
  </g>
</svg>
