<?xml version="1.0" encoding="UTF-8" standalone="no"?>
<!-- Created with Inkscape (http://www.inkscape.org/) -->

<svg
   xmlns:dc="http://purl.org/dc/elements/1.1/"
   xmlns:cc="http://creativecommons.org/ns#"
   xmlns:rdf="http://www.w3.org/1999/02/22-rdf-syntax-ns#"
   xmlns:svg="http://www.w3.org/2000/svg"
   xmlns="http://www.w3.org/2000/svg"
   xmlns:sodipodi="http://sodipodi.sourceforge.net/DTD/sodipodi-0.dtd"
   xmlns:inkscape="http://www.inkscape.org/namespaces/inkscape"
   width="121.21mm"
   height="146.07001mm"
   viewBox="0 0 121.21 146.07001"
   version="1.1"
   id="svg20722"
   inkscape:version="0.92.4 (5da689c313, 2019-01-14)"
   sodipodi:docname="fangs_back.svg">
  <defs
     id="defs20716" />
  <sodipodi:namedview
     id="base"
     pagecolor="#ffffff"
     bordercolor="#666666"
     borderopacity="1.0"
     inkscape:pageopacity="0.0"
     inkscape:pageshadow="2"
     inkscape:zoom="0.64585806"
     inkscape:cx="182.88858"
     inkscape:cy="254.73819"
     inkscape:document-units="mm"
     inkscape:current-layer="g22078"
     showgrid="false"
     inkscape:window-width="1600"
     inkscape:window-height="837"
     inkscape:window-x="-8"
     inkscape:window-y="-8"
     inkscape:window-maximized="1"
     inkscape:snap-intersection-paths="true"
     inkscape:snap-nodes="false" />
  <metadata
     id="metadata20719">
    <rdf:RDF>
      <cc:Work
         rdf:about="">
        <dc:format>image/svg+xml</dc:format>
        <dc:type
           rdf:resource="http://purl.org/dc/dcmitype/StillImage" />
        <dc:title />
      </cc:Work>
    </rdf:RDF>
  </metadata>
  <g
     inkscape:label="Layer 1"
     inkscape:groupmode="layer"
     id="layer1"
     transform="translate(0,-150.93)">
    <g
       id="g22078"
       transform="translate(0,-32.4345)">
      <path
         sodipodi:nodetypes="ccscc"
         inkscape:connector-curvature="0"
         class="st5"
         d="m 60.538042,219.4124 c -18.667234,-0.70449 -33.844774,2.24245 -59.2857289,14.32515 0,0 1.3716613,50.4999 59.1333219,50.4999 57.761665,0 59.133325,-50.4999 59.133325,-50.4999 C 100.46867,223.25013 80.258061,219.4124 60.538042,219.4124 Z"
         style="clip-rule:evenodd;fill:#20001b;fill-opacity:1;fill-rule:evenodd;stroke-width:0.03569504"
         id="path89065" />
      <path
         sodipodi:nodetypes="szszczs"
         inkscape:connector-curvature="0"
         id="path28017-3"
         d="m 91.01952,274.33409 c 0,6.68296 -9.296343,19.67451 -30.41455,20.17148 -21.118243,0.49697 -30.414514,-13.48852 -30.414514,-20.17148 0,-3.34151 9.008598,-10.95977 12.434577,-13.14955 3.425978,-2.18979 13.662906,-3.79258 17.979937,1.67242 2.495352,-5.92045 14.553922,-3.86214 17.979937,-1.67242 3.426015,2.18971 12.434613,9.80804 12.434613,13.14955 z"
         style="clip-rule:evenodd;display:inline;opacity:1;vector-effect:none;fill:#c04044;fill-opacity:1;fill-rule:evenodd;stroke:none;stroke-width:0.50006247;stroke-linecap:round;stroke-linejoin:round;stroke-miterlimit:4;stroke-dasharray:none;stroke-dashoffset:0;stroke-opacity:1;paint-order:stroke fill markers" />
      <path
         inkscape:connector-curvature="0"
         class="st4"
         d="m 40.51184,294.15445 -5.770145,-37.29001 -5.921979,19.7746 c 0,0 2.146991,16.20748 11.692124,17.51541 z"
         style="clip-rule:evenodd;fill:#dc7aca;fill-opacity:1;fill-rule:evenodd;stroke:none;stroke-width:0.99999994;stroke-miterlimit:4;stroke-dasharray:none;stroke-opacity:1"
         id="path89067"
         sodipodi:nodetypes="cccc" />
      <path
         sodipodi:nodetypes="ccczczc"
         inkscape:connector-curvature="0"
         id="rect28039-9"
         d="m 57.360252,260.35283 c 1.972846,0.0632 3.244718,2.50413 3.244718,2.50413 0,0 1.42664,-1.92897 2.7842,-2.80467 0.303509,5.44016 0.04152,6.98681 -0.271542,12.03733 -0.313062,5.05053 -2.512548,4.92512 -2.512548,4.92512 0,0 -1.665405,-0.0581 -2.512585,-4.92512 -0.84718,-4.86694 -1.126805,-7.64593 -0.732243,-11.73679 z"
         style="clip-rule:evenodd;display:inline;opacity:1;vector-effect:none;fill:#dc7aca;fill-opacity:1;fill-rule:evenodd;stroke:none;stroke-width:0.50006247;stroke-linecap:round;stroke-linejoin:round;stroke-miterlimit:4;stroke-dasharray:none;stroke-dashoffset:0;stroke-opacity:1;paint-order:stroke fill markers" />
      <path
         inkscape:connector-curvature="0"
         class="st4"
         d="m 80.603228,294.35202 5.956038,-37.48758 5.28698,19.7746 c 0.0876,0 -1.61034,16.40505 -11.243018,17.71298 z"
         style="clip-rule:evenodd;fill:#dc7aca;fill-opacity:1;fill-rule:evenodd;stroke:none;stroke-width:0.99999994;stroke-miterlimit:4;stroke-dasharray:none;stroke-opacity:1"
         id="path89075"
         sodipodi:nodetypes="cccc" />
      <path
         inkscape:connector-curvature="0"
         class="st4"
         d="m 45.694723,281.03876 c -0.594583,-0.2548 4.58696,-12.65743 4.58696,-12.65743 l 4.502022,12.65743 c 0,0 -3.312804,1.95383 -9.088982,0 z"
         style="clip-rule:evenodd;fill:#dc7aca;fill-opacity:1;fill-rule:evenodd;stroke:#ffffff;stroke-width:0.1322917;stroke-miterlimit:4;stroke-dasharray:none;stroke-opacity:1"
         id="path89069" />
      <path
         inkscape:connector-curvature="0"
         class="st4"
         d="m 17.33107,267.98479 5.791406,-8.40649 v 12.22762 c 0,0 -4.876971,0.76422 -5.791406,-3.82113 z"
         style="clip-rule:evenodd;fill:#dc7aca;fill-opacity:1;fill-rule:evenodd;stroke:none;stroke-width:1;stroke-miterlimit:4;stroke-dasharray:none;stroke-opacity:1"
         id="path89071" />
      <path
         inkscape:connector-curvature="0"
         class="st4"
         d="m 9.1773805,256.03991 6.2486215,-2.96137 -1.219243,10.41257 c 0.07617,0 -3.200514,-1.52845 -5.0293785,-7.4512 z"
         style="clip-rule:evenodd;fill:#dc7aca;fill-opacity:1;fill-rule:evenodd;stroke:none;stroke-width:1;stroke-miterlimit:4;stroke-dasharray:none;stroke-opacity:1"
         id="path89073" />
      <path
         inkscape:connector-curvature="0"
         class="st4"
         d="m 75.687713,280.26394 c 0.594583,-0.2548 -4.586965,-12.65743 -4.586965,-12.65743 l -4.502016,12.65743 c -0.08491,0 3.22786,1.95383 9.088981,0 z"
         style="clip-rule:evenodd;fill:#dc7aca;fill-opacity:1;fill-rule:evenodd;stroke:#ffffff;stroke-width:0.1322917;stroke-miterlimit:4;stroke-dasharray:none;stroke-opacity:1"
         id="path89077" />
      <path
         inkscape:connector-curvature="0"
         class="st4"
         d="m 103.97356,267.98479 -5.791412,-8.40649 v 12.22762 c 0,0 4.953172,0.76422 5.791412,-3.82113 z"
         style="clip-rule:evenodd;fill:#dc7aca;fill-opacity:1;fill-rule:evenodd;stroke:none;stroke-width:1;stroke-miterlimit:4;stroke-dasharray:none;stroke-opacity:1"
         id="path89079" />
      <path
         inkscape:connector-curvature="0"
         class="st4"
         d="m 112.12724,256.03991 -6.24862,-2.96137 1.21925,10.41257 c 0,0 3.27671,-1.52845 5.02937,-7.4512 z"
         style="clip-rule:evenodd;fill:#dc7aca;fill-opacity:1;fill-rule:evenodd;stroke:none;stroke-width:1;stroke-miterlimit:4;stroke-dasharray:none;stroke-opacity:1"
         id="path89081" />
      <path
         sodipodi:nodetypes="cscsc"
         inkscape:connector-curvature="0"
         id="path89105"
         d="m 1.4945156,233.3645 c 0,0 -1.52180661,69.9855 59.3642114,69.9855 60.962153,0 58.910163,-69.9855 58.910163,-69.9855 0,0 -1.37553,47.33699 -59.137171,47.33699 -57.7616727,0 -59.1372034,-47.33699 -59.1372034,-47.33699 z"
         style="clip-rule:evenodd;display:inline;fill:#a00084;fill-opacity:1;fill-rule:evenodd;stroke-width:0.03569504" />
      <path
         sodipodi:nodetypes="szszczs"
         inkscape:connector-curvature="0"
         id="path28017-3-9"
         d="m 83.623708,274.33409 c 0,6.68296 -7.03578,54.59951 -23.018731,55.09648 -15.982983,0.49697 -23.018706,-48.41352 -23.018706,-55.09648 0,-3.34151 6.818003,-10.95977 9.410896,-13.14955 2.592893,-2.18979 10.340537,-3.79258 13.60781,1.67242 1.888563,-5.92045 11.014884,-3.86214 13.607805,-1.67242 2.592921,2.18971 9.410926,9.80804 9.410926,13.14955 z"
         style="clip-rule:evenodd;display:inline;opacity:1;vector-effect:none;fill:#c04044;fill-opacity:1;fill-rule:evenodd;stroke:none;stroke-width:0.50006247;stroke-linecap:round;stroke-linejoin:round;stroke-miterlimit:4;stroke-dasharray:none;stroke-dashoffset:0;stroke-opacity:1;paint-order:stroke fill markers" />
      <path
         sodipodi:nodetypes="ccczczc"
         inkscape:connector-curvature="0"
         id="rect28039-9-7"
         d="m 53.511692,259.15014 c 4.579918,-0.22647 5.575029,1.88652 7.093278,3.70682 1.244874,-3.63642 3.508386,-3.67369 6.339405,-3.87923 -3.420651,5.22942 -4.008207,7.18613 -4.461747,11.20689 -0.45354,4.02076 -1.877547,29.05512 -1.877547,29.05512 0,0 -1.030406,-24.1881 -1.877586,-29.05512 -0.84718,-4.86694 -1.543198,-6.4154 -5.215803,-11.03448 z"
         style="clip-rule:evenodd;display:inline;opacity:1;vector-effect:none;fill:#903039;fill-opacity:1;fill-rule:evenodd;stroke:none;stroke-width:0.50006247;stroke-linecap:round;stroke-linejoin:round;stroke-miterlimit:4;stroke-dasharray:none;stroke-dashoffset:0;stroke-opacity:1;paint-order:stroke fill markers" />
    </g>
  </g>
</svg>
