<?xml version="1.0" encoding="UTF-8" standalone="no"?>
<svg
   xmlns:dc="http://purl.org/dc/elements/1.1/"
   xmlns:cc="http://creativecommons.org/ns#"
   xmlns:rdf="http://www.w3.org/1999/02/22-rdf-syntax-ns#"
   xmlns:svg="http://www.w3.org/2000/svg"
   xmlns="http://www.w3.org/2000/svg"
   xmlns:xlink="http://www.w3.org/1999/xlink"
   xmlns:sodipodi="http://sodipodi.sourceforge.net/DTD/sodipodi-0.dtd"
   xmlns:inkscape="http://www.inkscape.org/namespaces/inkscape"
   id="Layer_1"
   data-name="Layer 1"
   viewBox="0 0 458.11656 458.11656"
   version="1.1"
   sodipodi:docname="ghost_front.svg"
   width="121.21mm"
   height="121.21mm"
   inkscape:version="0.92.4 (5da689c313, 2019-01-14)">
  <metadata
     id="metadata35">
    <rdf:RDF>
      <cc:Work
         rdf:about="">
        <dc:format>image/svg+xml</dc:format>
        <dc:type
           rdf:resource="http://purl.org/dc/dcmitype/StillImage" />
        <dc:title>ghost-filled</dc:title>
      </cc:Work>
    </rdf:RDF>
  </metadata>
  <sodipodi:namedview
     pagecolor="#ffffff"
     bordercolor="#666666"
     borderopacity="1"
     objecttolerance="10"
     gridtolerance="10"
     guidetolerance="10"
     inkscape:pageopacity="0"
     inkscape:pageshadow="2"
     inkscape:window-width="1600"
     inkscape:window-height="837"
     id="namedview33"
     showgrid="false"
     inkscape:zoom="1.0432797"
     inkscape:cx="-13.255557"
     inkscape:cy="204.56123"
     inkscape:window-x="-8"
     inkscape:window-y="-8"
     inkscape:window-maximized="1"
     inkscape:current-layer="Layer_1"
     units="mm"
     showguides="false"
     inkscape:snap-intersection-paths="false"
     inkscape:object-paths="false"
     inkscape:snap-smooth-nodes="false"
     inkscape:object-nodes="true" />
  <defs
     id="defs4">
    <linearGradient
       inkscape:collect="always"
       id="linearGradient1993">
      <stop
         style="stop-color:#2b374f;stop-opacity:1;"
         offset="0"
         id="stop1989" />
      <stop
         style="stop-color:#2b374f;stop-opacity:0;"
         offset="1"
         id="stop1991" />
    </linearGradient>
    <style
       id="style2">.cls-1{fill:#e4e6ea;}.cls-2{opacity:0.6;}.cls-3{fill:#fff;}.cls-4{opacity:0.12;}.cls-5{fill:#757889;}.cls-6{fill:#2b374f;}.cls-7{fill:#f2496d;}</style>
    <linearGradient
       inkscape:collect="always"
       xlink:href="#linearGradient1993"
       id="linearGradient1995"
       x1="234.50586"
       y1="267.50195"
       x2="234.50586"
       y2="371.69843"
       gradientUnits="userSpaceOnUse" />
    <linearGradient
       gradientTransform="translate(-61.964844,-267.50195)"
       inkscape:collect="always"
       xlink:href="#linearGradient1993"
       id="linearGradient1995-1"
       x1="234.50586"
       y1="267.50195"
       x2="234.5498"
       y2="314.1875"
       gradientUnits="userSpaceOnUse" />
    <linearGradient
       inkscape:collect="always"
       xlink:href="#linearGradient1993"
       id="linearGradient2092"
       gradientUnits="userSpaceOnUse"
       x1="234.50586"
       y1="267.50195"
       x2="234.50586"
       y2="371.69843" />
    <linearGradient
       inkscape:collect="always"
       xlink:href="#linearGradient1993"
       id="linearGradient2104"
       gradientUnits="userSpaceOnUse"
       x1="234.50586"
       y1="267.50195"
       x2="234.50586"
       y2="371.69843" />
    <linearGradient
       inkscape:collect="always"
       xlink:href="#linearGradient1993"
       id="linearGradient2129"
       gradientUnits="userSpaceOnUse"
       x1="234.50586"
       y1="267.50195"
       x2="234.50586"
       y2="371.69843" />
    <linearGradient
       gradientTransform="translate(0,1.9728101e-6)"
       inkscape:collect="always"
       xlink:href="#linearGradient1993"
       id="linearGradient1995-19"
       x1="234.50586"
       y1="267.50195"
       x2="234.50586"
       y2="371.69843"
       gradientUnits="userSpaceOnUse" />
  </defs>
  <title
     id="title6">ghost-filled</title>
  <ellipse
     style="opacity:1;vector-effect:none;fill:url(#linearGradient1995);fill-opacity:1;fill-rule:evenodd;stroke:none;stroke-width:3.67488384;stroke-linecap:butt;stroke-linejoin:miter;stroke-miterlimit:4;stroke-dasharray:none;stroke-dashoffset:0;stroke-opacity:1;paint-order:stroke fill markers;font-variant-east_asian:normal"
     id="path914-6"
     cx="234.50632"
     cy="318.15561"
     ry="50.653366"
     rx="173.222" />
  <path
     style="fill:#e4e6ea;stroke-width:1"
     d="M 221.42383,11.453125 C 103.35214,11.453124 18.435547,83.241286 18.435547,171.79492 V 314.1875 h 43.529297 c 7.077198,-26.33837 82.192706,-46.66287 172.541016,-46.68555 90.3821,0.009 165.54904,20.33733 172.62891,46.68555 h 28.07617 V 171.79492 c 0,-88.553634 -95.71542,-160.341795 -213.78711,-160.341795 z"
     id="path8"
     inkscape:connector-curvature="0"
     sodipodi:nodetypes="sscccccss" />
  <path
     style="opacity:0.6;fill:#ffffff;stroke-width:1"
     d="M 206.84375,0.82421875 C 90.930721,9.2259922 10.800781,82.686024 10.800781,171.79492 V 314.1875 h 51.164063 c 1.538993,-5.73256 6.404752,-11.34664 14.388672,-16.60156 V 167.5 c 0,-73.396963 53.385874,-136.916145 130.490234,-166.67578125 z"
     id="path10-8"
     inkscape:connector-curvature="0"
     sodipodi:nodetypes="cscccsc" />
  <path
     style="fill:#2b374f;stroke-width:1"
     d="M 229.05859,0 C 102.75443,0 10.800781,77.06695 10.800781,171.79492 V 317.7875 H 30.541016 V 171.79492 c 0,-82.093993 89.046814,-148.88867 198.517574,-148.88867 109.47076,0 198.51758,66.794677 198.51758,148.88867 V 317.7875 h 19.74024 V 171.79492 C 447.31641,77.06695 355.36275,0 229.05859,0 Z"
     id="path22"
     inkscape:connector-curvature="0"
     sodipodi:nodetypes="ssccsssccss" />
  <g
     id="g1567"
     transform="translate(5.5844771,36)">
    <circle
       style="fill:#757889;stroke-width:1"
       id="circle18"
       r="28.632242"
       cy="171.24713"
       cx="147.79378"
       class="cls-5" />
    <path
       style="fill:#2b374f;stroke-width:1"
       inkscape:connector-curvature="0"
       id="path24"
       d="m 187.87892,171.24713 a 40.085138,40.085138 0 1 0 -40.08513,40.08514 40.129876,40.129876 0 0 0 40.08513,-40.08514 z m -40.08513,17.17934 a 17.179345,17.179345 0 1 1 17.17934,-17.17934 17.19724,17.19724 0 0 1 -17.17934,17.17934 z"
       class="cls-6" />
  </g>
  <g
     id="g1571"
     transform="matrix(0.72136919,0,0,0.72136919,92.049955,83.714725)"
     style="stroke-width:1.38625276">
    <circle
       style="fill:#757889;stroke-width:1.38625276"
       id="circle20"
       r="28.632242"
       cy="171.24713"
       cx="310.32272"
       class="cls-5" />
    <path
       style="fill:#2b374f;stroke-width:1.38625276"
       inkscape:connector-curvature="0"
       id="path26"
       d="m 310.32275,131.16199 a 40.085138,40.085138 0 1 0 40.08514,40.08514 40.129876,40.129876 0 0 0 -40.08514,-40.08514 z m 0,57.26448 a 17.179345,17.179345 0 1 1 17.17935,-17.17934 17.19724,17.19724 0 0 1 -17.17935,17.17934 z"
       class="cls-6" />
  </g>
  <path
     style="opacity:0.12000002;stroke-width:1"
     d="M 251.27148,0.82421875 C 328.37584,30.60175 381.76367,94.129883 381.76367,167.5 v 124.10352 c 14.46356,6.83292 23.16005,14.57407 25.3711,22.58398 h 40.18164 V 171.79492 c 0,-89.108892 -80.1319,-162.5689282 -196.04493,-170.97070125 z"
     id="path14-7"
     inkscape:connector-curvature="0"
     sodipodi:nodetypes="cscccsc" />
  <circle
     style="opacity:1;vector-effect:none;fill:url(#linearGradient2092);fill-opacity:1;fill-rule:evenodd;stroke:none;stroke-width:3.67488384;stroke-linecap:butt;stroke-linejoin:miter;stroke-miterlimit:4;stroke-dasharray:none;stroke-dashoffset:0;stroke-opacity:1;paint-order:stroke fill markers"
     id="path914-6-8"
     cx="234.50632"
     cy="318.15561"
     r="0" />
  <circle
     style="opacity:1;vector-effect:none;fill:url(#linearGradient2104);fill-opacity:1;fill-rule:evenodd;stroke:none;stroke-width:3.67488384;stroke-linecap:butt;stroke-linejoin:miter;stroke-miterlimit:4;stroke-dasharray:none;stroke-dashoffset:0;stroke-opacity:1;paint-order:stroke fill markers"
     id="path914-6-7"
     cx="234.50632"
     cy="318.15561"
     r="0" />
  <circle
     style="opacity:1;vector-effect:none;fill:url(#linearGradient2129);fill-opacity:1;fill-rule:evenodd;stroke:none;stroke-width:3.67488384;stroke-linecap:butt;stroke-linejoin:miter;stroke-miterlimit:4;stroke-dasharray:none;stroke-dashoffset:0;stroke-opacity:1;paint-order:stroke fill markers"
     id="path914-6-4"
     cx="234.50632"
     cy="318.15561"
     r="0" />
  <ellipse
     style="opacity:1;vector-effect:none;fill:url(#linearGradient1995-19);fill-opacity:1;fill-rule:evenodd;stroke:none;stroke-width:3.67488384;stroke-linecap:butt;stroke-linejoin:miter;stroke-miterlimit:4;stroke-dasharray:none;stroke-dashoffset:0;stroke-opacity:1;paint-order:stroke fill markers"
     id="path914-6-3"
     cx="234.50632"
     cy="318.15561"
     ry="50.653366"
     rx="173.222" />
</svg>
