<?xml version="1.0" encoding="UTF-8" standalone="no"?>
<!-- Created with Inkscape (http://www.inkscape.org/) -->

<svg
   xmlns:dc="http://purl.org/dc/elements/1.1/"
   xmlns:cc="http://creativecommons.org/ns#"
   xmlns:rdf="http://www.w3.org/1999/02/22-rdf-syntax-ns#"
   xmlns:svg="http://www.w3.org/2000/svg"
   xmlns="http://www.w3.org/2000/svg"
   xmlns:sodipodi="http://sodipodi.sourceforge.net/DTD/sodipodi-0.dtd"
   xmlns:inkscape="http://www.inkscape.org/namespaces/inkscape"
   width="121.21mm"
   height="64.903mm"
   viewBox="0 0 121.21 64.903"
   version="1.1"
   id="svg20722"
   inkscape:version="0.92.4 (5da689c313, 2019-01-14)"
   sodipodi:docname="mouth_full.svg">
  <defs
     id="defs20716" />
  <sodipodi:namedview
     id="base"
     pagecolor="#ffffff"
     bordercolor="#666666"
     borderopacity="1.0"
     inkscape:pageopacity="0.0"
     inkscape:pageshadow="2"
     inkscape:zoom="0.21464844"
     inkscape:cx="153.48256"
     inkscape:cy="897.25921"
     inkscape:document-units="mm"
     inkscape:current-layer="layer1"
     showgrid="false"
     inkscape:window-width="1600"
     inkscape:window-height="837"
     inkscape:window-x="-8"
     inkscape:window-y="-8"
     inkscape:window-maximized="1" />
  <metadata
     id="metadata20719">
    <rdf:RDF>
      <cc:Work
         rdf:about="">
        <dc:format>image/svg+xml</dc:format>
        <dc:type
           rdf:resource="http://purl.org/dc/dcmitype/StillImage" />
        <dc:title></dc:title>
      </cc:Work>
    </rdf:RDF>
  </metadata>
  <g
     inkscape:label="Layer 1"
     inkscape:groupmode="layer"
     id="layer1"
     transform="translate(0,-232.097)">
    <g
       id="g14194"
       transform="matrix(3.6744442,0,0,3.6744442,-365.32506,-771.37781)"
       style="clip-rule:evenodd;display:inline;fill-rule:evenodd;stroke-width:0.07200636;enable-background:new">
      <g
         style="clip-rule:evenodd;display:inline;fill-rule:evenodd;stroke-width:0.04684075"
         id="g89103"
         transform="matrix(1.5740992,0,0,1.5741994,27.93575,163.90187)">
        <path
           id="path89065"
           style="clip-rule:evenodd;fill:#20001b;fill-opacity:1;fill-rule:evenodd;stroke-width:0.00617121"
           d="m 64.774458,69.977639 -0.98811,0.144923 c -0.32937,0.03952 -0.6851,0.07905 -1.04082,0.118574 l -0.75097,0.06588 c -0.23714,0.01318 -0.48747,0.03952 -0.72462,0.0527 l -1.64685,0.07905 c -0.3689,0.01318 -0.71145,0.02635 -1.05399,0.02635 -0.4743,0.711443 -2.12116,0.01318 -2.12116,0.01318 h -0.56652 -0.56652 c 0,0 -1.64686,0.698267 -2.12116,-0.01318 -0.32937,-0.01318 -0.68509,-0.01318 -1.05399,-0.02635 l -1.64686,-0.07905 c -0.23714,-0.01318 -0.48747,-0.02635 -0.72461,-0.0527 l -0.75097,-0.06587 c -0.35572,-0.03952 -0.69827,-0.06587 -1.04082,-0.118574 l -0.97494,-0.144923 c -0.51382,-0.09222 -0.97494,-0.197624 -1.37019,-0.329372 0,0 0.23715,8.181601 10.22371,8.181601 9.98656,0 10.22371,-8.181601 10.22371,-8.181601 -0.32937,0.131748 -0.80367,0.237148 -1.30432,0.329372 z"
           class="st5"
           inkscape:connector-curvature="0"
           sodipodi:nodetypes="ccccccccccccccccccscc" />
        <g
           style="clip-rule:evenodd;display:inline;fill-rule:evenodd;stroke-width:0.04684075"
           id="g14590"
           transform="matrix(0.63528398,0,0,0.63524354,-17.476173,-104.1176)">
          <path
             sodipodi:nodetypes="szszczs"
             inkscape:connector-curvature="0"
             id="path28017-3"
             d="m 123.76766,284.59049 c 0,1.81877 -2.53,5.35442 -8.27732,5.48967 -5.74733,0.13525 -8.27731,-3.6709 -8.27731,-5.48967 0,-0.90939 2.45169,-2.9827 3.38407,-3.57865 0.93238,-0.59595 3.71836,-1.03215 4.89324,0.45515 0.67911,-1.61125 3.96085,-1.05108 4.89324,-0.45515 0.93239,0.59593 3.38408,2.66926 3.38408,3.57865 z"
             style="clip-rule:evenodd;display:inline;opacity:1;vector-effect:none;fill:#c04044;fill-opacity:1;fill-rule:evenodd;stroke:none;stroke-width:0.13609201;stroke-linecap:round;stroke-linejoin:round;stroke-miterlimit:4;stroke-dasharray:none;stroke-dashoffset:0;stroke-opacity:1;paint-order:stroke fill markers" />
          <path
             sodipodi:nodetypes="ccczczc"
             inkscape:connector-curvature="0"
             id="rect28039-9"
             d="m 114.60729,280.78549 c 0.53691,0.0172 0.88305,0.6815 0.88305,0.6815 0,0 0.38826,-0.52497 0.75772,-0.76329 0.0826,1.48054 0.0113,1.90146 -0.0739,3.27596 -0.0852,1.3745 -0.68379,1.34037 -0.68379,1.34037 0,0 -0.45324,-0.0158 -0.6838,-1.34037 -0.23056,-1.32454 -0.30666,-2.08084 -0.19928,-3.19417 z"
             style="clip-rule:evenodd;display:inline;opacity:1;vector-effect:none;fill:#903039;fill-opacity:1;fill-rule:evenodd;stroke:none;stroke-width:0.13609201;stroke-linecap:round;stroke-linejoin:round;stroke-miterlimit:4;stroke-dasharray:none;stroke-dashoffset:0;stroke-opacity:1;paint-order:stroke fill markers" />
        </g>
        <g
           id="g89083"
           style="stroke-width:0.04684075">
          <path
             inkscape:connector-curvature="0"
             class="st4"
             d="m 51.704975,77.340704 -0.51382,-2.29243 -0.843192,1.567811 c 0,0 -0.07905,0.59287 1.357012,0.724619 z"
             style="fill:#f0f0f0;fill-opacity:1;stroke:#ffffff;stroke-width:0.02287152;stroke-miterlimit:4;stroke-dasharray:none;stroke-opacity:1"
             id="path89067" />
          <path
             inkscape:connector-curvature="0"
             class="st4"
             d="m 53.315119,77.825783 c -0.102799,-0.04405 0.793051,-2.188236 0.793051,-2.188236 l 0.778366,2.188236 c 0,0 -0.572759,0.337781 -1.571417,0 z"
             style="fill:#f0f0f0;fill-opacity:1;stroke:#ffffff;stroke-width:0.02287152;stroke-miterlimit:4;stroke-dasharray:none;stroke-opacity:1"
             id="path89069" />
          <path
             inkscape:connector-curvature="0"
             class="st4"
             d="m 48.411255,75.533229 1.001291,-1.15939 v 1.686385 c 0,0 -0.843192,0.105399 -1.001291,-0.526995 z"
             style="fill:#f0f0f0;fill-opacity:1;stroke:#ffffff;stroke-width:0.02287152;stroke-miterlimit:4;stroke-dasharray:none;stroke-opacity:1"
             id="path89071" />
          <path
             inkscape:connector-curvature="0"
             class="st4"
             d="m 47.001543,73.885837 1.08034,-0.408421 -0.210798,1.436061 c 0.01317,0 -0.553345,-0.210797 -0.869542,-1.02764 z"
             style="fill:#f0f0f0;fill-opacity:1;stroke:#ffffff;stroke-width:0.02287152;stroke-miterlimit:4;stroke-dasharray:none;stroke-opacity:1"
             id="path89073" />
          <path
             inkscape:connector-curvature="0"
             class="st4"
             d="m 60.097374,77.340704 0.513821,-2.29243 0.843192,1.567811 c 0.01318,0 0.09222,0.59287 -1.357013,0.724619 z"
             style="fill:#f0f0f0;fill-opacity:1;stroke:#ffffff;stroke-width:0.02287152;stroke-miterlimit:4;stroke-dasharray:none;stroke-opacity:1"
             id="path89075" />
          <path
             inkscape:connector-curvature="0"
             class="st4"
             d="m 58.500683,77.69183 c 0.102799,-0.04405 -0.793052,-2.188236 -0.793052,-2.188236 l -0.778365,2.188236 c -0.01468,0 0.558073,0.337781 1.571417,0 z"
             style="fill:#f0f0f0;fill-opacity:1;stroke:#ffffff;stroke-width:0.02287152;stroke-miterlimit:4;stroke-dasharray:none;stroke-opacity:1"
             id="path89077" />
          <path
             inkscape:connector-curvature="0"
             class="st4"
             d="m 63.391094,75.533229 -1.001291,-1.15939 v 1.686385 c 0,0 0.856367,0.105399 1.001291,-0.526995 z"
             style="fill:#f0f0f0;fill-opacity:1;stroke:#ffffff;stroke-width:0.02287152;stroke-miterlimit:4;stroke-dasharray:none;stroke-opacity:1"
             id="path89079" />
          <path
             inkscape:connector-curvature="0"
             class="st4"
             d="m 64.800806,73.885837 -1.08034,-0.408421 0.210798,1.436061 c 0,0 0.56652,-0.210797 0.869542,-1.02764 z"
             style="fill:#f0f0f0;fill-opacity:1;stroke:#ffffff;stroke-width:0.02287152;stroke-miterlimit:4;stroke-dasharray:none;stroke-opacity:1"
             id="path89081" />
        </g>
        <path
           id="path89091"
           style="fill:#f0f0f0;fill-opacity:1;stroke:#ffffff;stroke-width:0.02287152;stroke-miterlimit:4;stroke-dasharray:none;stroke-opacity:1"
           d="m 49.723836,70.457233 c -0.308863,-0.01795 -0.617727,-0.05383 -0.910335,-0.08974 l 0.471424,1.166478 z"
           class="st4"
           inkscape:connector-curvature="0" />
        <path
           id="path89093"
           style="fill:#f0f0f0;fill-opacity:1;stroke:#ffffff;stroke-width:0.02287152;stroke-miterlimit:4;stroke-dasharray:none;stroke-opacity:1"
           d="m 55.519362,70.342374 c -0.550423,0 -1.421925,0 -2.461612,-0.0153 0.550422,0.825633 1.483083,2.201691 1.483083,2.201691 z"
           class="st4"
           inkscape:connector-curvature="0" />
        <path
           id="path89095"
           style="fill:#f0f0f0;fill-opacity:1;stroke:#ffffff;stroke-width:0.02287152;stroke-miterlimit:4;stroke-dasharray:none;stroke-opacity:1"
           d="m 48.016007,70.135733 c -0.342547,-0.03952 -0.671919,-0.09222 -0.974942,-0.144924 l 0.500646,1.119866 z"
           class="st4"
           inkscape:connector-curvature="0" />
        <path
           id="path89087"
           style="fill:#f0f0f0;fill-opacity:1;stroke:#ffffff;stroke-width:0.02287152;stroke-miterlimit:4;stroke-dasharray:none;stroke-opacity:1"
           d="m 64.361425,70.049881 c -0.308864,0.03589 -0.617728,0.05384 -0.910335,0.08974 l 0.455167,1.076749 z"
           class="st4"
           inkscape:connector-curvature="0" />
        <path
           style="clip-rule:evenodd;display:inline;fill:#a00084;fill-opacity:1;fill-rule:evenodd;stroke-width:0.00617121"
           d="m 45.673233,69.583783 c 0,0 -0.263109,11.001404 10.263629,11.001404 10.539901,0 10.185127,-11.001404 10.185127,-11.001404 0,0 -0.237819,8.183692 -10.224375,8.183692 -9.986562,0 -10.224381,-8.183692 -10.224381,-8.183692 z"
           id="path89105"
           inkscape:connector-curvature="0"
           sodipodi:nodetypes="cscsc" />
        <path
           id="path89085"
           style="fill:#f0f0f0;fill-opacity:1;stroke:#ffffff;stroke-width:0.02287152;stroke-miterlimit:4;stroke-dasharray:none;stroke-opacity:1"
           d="m 61.296288,70.359706 c -0.56652,0.03952 -1.119865,0.06587 -1.64686,0.07905 l 0.988116,1.212088 z"
           class="st4"
           inkscape:connector-curvature="0" />
        <path
           id="path89097"
           style="fill:#f0f0f0;fill-opacity:1;stroke:#ffffff;stroke-width:0.02287152;stroke-miterlimit:4;stroke-dasharray:none;stroke-opacity:1"
           d="m 52.179271,70.438756 c -0.526995,-0.01318 -1.093515,-0.03952 -1.64686,-0.07905 l 0.658744,1.291138 z"
           class="st4"
           inkscape:connector-curvature="0" />
        <path
           id="path89099"
           style="clip-rule:evenodd;display:inline;fill:#f0f0f0;fill-opacity:1;fill-rule:evenodd;stroke:#ffffff;stroke-width:0.02287152;stroke-miterlimit:4;stroke-dasharray:none;stroke-opacity:1"
           d="m 56.179545,70.342374 c 0.550423,0 1.421925,0 2.461612,-0.0153 -0.550422,0.825633 -1.483083,2.201691 -1.483083,2.201691 z"
           class="st4"
           inkscape:connector-curvature="0" />
        <path
           id="path89089"
           style="fill:#f0f0f0;fill-opacity:1;stroke:#ffffff;stroke-width:0.02287152;stroke-miterlimit:4;stroke-dasharray:none;stroke-opacity:1"
           d="m 62.869157,70.295257 c -0.316197,0.0527 -0.632394,0.105399 -0.974941,0.144923 l 0.474296,0.974941 z"
           class="st4"
           inkscape:connector-curvature="0" />
        <path
           style="clip-rule:evenodd;fill:#a00084;fill-opacity:1;fill-rule:evenodd;stroke-width:0.0069158"
           d="m 45.683392,70.172839 c 0,0 -0.723462,-0.976508 0.20434,-0.782809 4.644679,0.969676 3.509388,0.02018 10.119485,0.02018 6.61836,0 5.289071,0.949496 9.972429,-0.01215 0.853956,-0.175345 0.04489,0.791156 0.04489,0.791156 -1.584388,0.329819 -5.013011,0.372168 -10.017318,0.372168 -5.004307,0 -8.815503,0.09341 -10.323826,-0.388552 z"
           id="path89101"
           inkscape:connector-curvature="0"
           sodipodi:nodetypes="cssscscc" />
      </g>
    </g>
  </g>
</svg>
