<?xml version="1.0" encoding="UTF-8" standalone="no"?>
<!-- Created with Inkscape (http://www.inkscape.org/) -->

<svg
   xmlns:dc="http://purl.org/dc/elements/1.1/"
   xmlns:cc="http://creativecommons.org/ns#"
   xmlns:rdf="http://www.w3.org/1999/02/22-rdf-syntax-ns#"
   xmlns:svg="http://www.w3.org/2000/svg"
   xmlns="http://www.w3.org/2000/svg"
   xmlns:sodipodi="http://sodipodi.sourceforge.net/DTD/sodipodi-0.dtd"
   xmlns:inkscape="http://www.inkscape.org/namespaces/inkscape"
   width="121.21mm"
   height="146.07001mm"
   viewBox="0 0 121.21 146.07001"
   version="1.1"
   id="svg20722"
   inkscape:version="0.92.4 (5da689c313, 2019-01-14)"
   sodipodi:docname="mouth_front.svg">
  <defs
     id="defs20716" />
  <sodipodi:namedview
     id="base"
     pagecolor="#ffffff"
     bordercolor="#666666"
     borderopacity="1.0"
     inkscape:pageopacity="0.0"
     inkscape:pageshadow="2"
     inkscape:zoom="0.74466751"
     inkscape:cx="124.20048"
     inkscape:cy="192.28672"
     inkscape:document-units="mm"
     inkscape:current-layer="g895"
     showgrid="false"
     inkscape:window-width="1600"
     inkscape:window-height="837"
     inkscape:window-x="-8"
     inkscape:window-y="-8"
     inkscape:window-maximized="1"
     inkscape:snap-intersection-paths="true" />
  <metadata
     id="metadata20719">
    <rdf:RDF>
      <cc:Work
         rdf:about="">
        <dc:format>image/svg+xml</dc:format>
        <dc:type
           rdf:resource="http://purl.org/dc/dcmitype/StillImage" />
        <dc:title></dc:title>
      </cc:Work>
    </rdf:RDF>
  </metadata>
  <g
     inkscape:label="Layer 1"
     inkscape:groupmode="layer"
     id="layer1"
     transform="translate(0,-150.93)">
    <g
       id="g22078"
       transform="translate(0,-32.4345)">
      <g
         id="g849"
         transform="matrix(1.3107209,0,0,1.3107209,67.80317,9.5553503)"
         style="stroke-width:0.76293892">
        <g
           id="g100"
           transform="matrix(0.26458333,0,0,0.26458333,-60.909616,133.59078)"
           style="stroke-width:0.76293892" />
        <g
           id="g895"
           transform="matrix(1.5052371,0,0,1,2.8355532,0)"
           style="stroke-width:0.6218524">
          <path
             sodipodi:nodetypes="sscccccccccccs"
             inkscape:connector-curvature="0"
             id="path875"
             transform="matrix(0.20186093,0,0,0.20186093,-51.729678,132.60576)"
             d="m 228.98828,48.527344 c -84.14828,0 -152.304686,68.156406 -152.304686,152.304686 v 69.58985 h 28.652346 72.56151 l 13.48927,42.10898 13.49122,-42.10898 h 46.73631 l 13.48927,42.10898 13.75684,-42.10898 h 72.55956 29.61133 V 200.83203 C 381.29339,116.68375 313.13656,48.527344 228.98828,48.527344 Z"
             style="opacity:1;vector-effect:none;fill:#ffffff;fill-opacity:1;stroke-width:0.81507492;stroke-linecap:butt;stroke-linejoin:miter;stroke-miterlimit:4;stroke-dasharray:none;stroke-dashoffset:0;stroke-opacity:1" />
          <path
             inkscape:connector-curvature="0"
             d="m -19.017381,162.74159 c -1.145554,0.60855 -2.156337,1.5875 -2.875116,2.93688 -1.95418,3.62479 -1.055707,8.46667 2.044027,10.76854 3.077274,2.30188 7.187791,1.24354 9.141972,-2.40771 0.7187791,-1.32291 1.0557067,-2.83104 1.0332443,-4.28625 z"
             id="path102"
             style="stroke-width:0.16453178" />
          <path
             inkscape:connector-curvature="0"
             d="m 7.5823144,162.74159 c 1.1455544,0.60855 2.1563375,1.5875 2.8751166,2.93688 1.954181,3.62479 1.055707,8.46667 -2.0440274,10.76854 -3.099735,2.30188 -7.1877914,1.24354 -9.14197192,-2.40771 -0.71877938,-1.32291 -1.05570698,-2.83104 -1.03324458,-4.28625 z"
             id="path104"
             style="stroke-width:0.16453178" />
        </g>
      </g>
    </g>
  </g>
</svg>
