<?xml version="1.0" encoding="UTF-8" standalone="no"?>
<svg
   xmlns:dc="http://purl.org/dc/elements/1.1/"
   xmlns:cc="http://creativecommons.org/ns#"
   xmlns:rdf="http://www.w3.org/1999/02/22-rdf-syntax-ns#"
   xmlns:svg="http://www.w3.org/2000/svg"
   xmlns="http://www.w3.org/2000/svg"
   xmlns:sodipodi="http://sodipodi.sourceforge.net/DTD/sodipodi-0.dtd"
   xmlns:inkscape="http://www.inkscape.org/namespaces/inkscape"
   id="Layer_1"
   data-name="Layer 1"
   viewBox="0 0 458.11656 458.11656"
   version="1.1"
   sodipodi:docname="vamp_back.svg"
   width="121.21mm"
   height="121.21mm"
   inkscape:version="0.92.4 (5da689c313, 2019-01-14)">
  <metadata
     id="metadata35">
    <rdf:RDF>
      <cc:Work
         rdf:about="">
        <dc:format>image/svg+xml</dc:format>
        <dc:type
           rdf:resource="http://purl.org/dc/dcmitype/StillImage" />
        <dc:title>ghost-filled</dc:title>
      </cc:Work>
    </rdf:RDF>
  </metadata>
  <sodipodi:namedview
     pagecolor="#ffffff"
     bordercolor="#666666"
     borderopacity="1"
     objecttolerance="10"
     gridtolerance="10"
     guidetolerance="10"
     inkscape:pageopacity="0"
     inkscape:pageshadow="2"
     inkscape:window-width="1600"
     inkscape:window-height="837"
     id="namedview33"
     showgrid="false"
     inkscape:zoom="1.0432797"
     inkscape:cx="239.73402"
     inkscape:cy="219.65641"
     inkscape:window-x="-8"
     inkscape:window-y="-8"
     inkscape:window-maximized="1"
     inkscape:current-layer="Layer_1"
     units="mm"
     inkscape:snap-intersection-paths="true"
     inkscape:object-paths="true"
     inkscape:snap-nodes="false" />
  <defs
     id="defs4">
    <style
       id="style2">.cls-1{fill:#e4e6ea;}.cls-2{opacity:0.6;}.cls-3{fill:#fff;}.cls-4{opacity:0.12;}.cls-5{fill:#757889;}.cls-6{fill:#2b374f;}.cls-7{fill:#f2496d;}</style>
  </defs>
  <title
     id="title6">ghost-filled</title>
  <ellipse
     style="opacity:1;vector-effect:none;fill:#2b374f;fill-opacity:1;fill-rule:evenodd;stroke:none;stroke-width:3.67488384;stroke-linecap:butt;stroke-linejoin:miter;stroke-miterlimit:4;stroke-dasharray:none;stroke-dashoffset:0;stroke-opacity:1;paint-order:stroke fill markers"
     id="path914"
     cx="234.50632"
     cy="318.15561"
     rx="173.222"
     ry="50.653366" />
  <path
     class="cls-7"
     d="m 229.05827,327.50254 a 104.16868,22.80737 0 0 0 -90.11059,11.4529 103.76002,22.717894 0 0 0 180.22118,0 104.16868,22.80737 0 0 0 -90.11059,-11.4529 z"
     id="path30"
     inkscape:connector-curvature="0"
     style="fill:#f2496d;stroke-width:1" />
  <path
     inkscape:connector-curvature="0"
     class="st1"
     d="m 451.57529,259.00157 c 0,-94.39904 -99.61779,-139.7568 -222.51704,-139.7568 -122.89925,0 -222.5170192,45.52971 -222.5170192,139.7568 0,94.22708 99.6177692,170.91555 222.5170192,170.91555 122.89925,0 222.51704,-76.51652 222.51704,-170.91555 z"
     style="fill:#3c0f0b;stroke-width:0.99999988"
     id="path4"
     sodipodi:nodetypes="sssss" />
  <path
     style="opacity:1;vector-effect:none;fill:#d33b2c;fill-opacity:1;stroke-width:0.99999976;stroke-linecap:butt;stroke-linejoin:miter;stroke-miterlimit:4;stroke-dasharray:none;stroke-dashoffset:0;stroke-opacity:1"
     d="M 13.548828 216.76953 C -10.395081 263.44666 2.415839 323.10362 49.761719 386.24219 L 49.992188 385.55469 C 87.770811 429.22929 153.82815 458.11719 228.92188 458.11719 C 228.96807 458.11719 229.01273 458.11428 229.05859 458.11328 C 229.10449 458.11428 229.14904 458.11719 229.19531 458.11719 C 304.28902 458.11719 370.34444 429.22929 408.12305 385.55469 L 408.35547 386.24219 C 455.70135 323.10362 468.51225 263.44666 444.56836 216.76953 C 450.22389 241.03765 449.4852 294.34667 384.94531 349.27344 L 384.71484 348.92969 C 352.03518 374.03399 294.5553 390.54102 229.42773 390.54102 C 229.33183 390.54102 229.23835 390.53516 229.14258 390.53516 C 229.12768 393.16361 229.11656 399.61103 229.10156 402.03125 C 229.08696 404.40549 229.07329 405.33947 229.05859 407.52148 C 229.04389 405.33947 229.03022 404.40549 229.01562 402.03125 C 229.00053 399.61103 228.98961 393.16361 228.97461 390.53516 C 228.87871 390.53523 228.78531 390.54102 228.68945 390.54102 C 163.56188 390.54102 106.08201 374.03399 73.402344 348.92969 L 73.169922 349.27344 C 8.6300182 294.34667 7.8932896 241.03765 13.548828 216.76953 z "
     id="path45836" />
  <g
     transform="matrix(0.33987717,0,0,0.1954753,-12.824582,144.03119)"
     id="g342"
     style="stroke-width:3.87965441">
    <path
       style="fill:#ff709e;stroke-width:3.87965441"
       inkscape:connector-curvature="0"
       d="m 1054.4,482.7 c -119.5,-51.9 -328.6,17.7 -328.6,17.7 0,0 -209.1,-69.7 -328.6,-17.7 -119.5,51.9 -156.7,276.88883 -62,568.3888 94.7,291.5 166.6,512.2112 390.6,455.3112 224,56.9 295.9,-163.8112 390.6,-455.3112 94.7,-291.49997 57.5,-516.4888 -62,-568.3888 z"
       id="path332"
       sodipodi:nodetypes="sccscss" />
    <path
       style="fill:#ff96b7;stroke-width:3.87965441"
       inkscape:connector-curvature="0"
       d="m 1004.6,586.6 c -101.4,-46.7 -278.8,16 -278.8,16 0,0 -177.4,-62.6 -278.8,-16 -101.4,46.6 -132.9,255.18883 -52.6,517.3888 80.3,262.2 141.4,454.5112 331.4,403.3112 190,51.2 251.1,-141.1112 331.4,-403.3112 C 1137.5,841.68883 1106,633.2 1004.6,586.6 Z"
       id="path334"
       sodipodi:nodetypes="ccssccc" />
    <path
       style="fill:#ff709e;stroke-width:3.87965441"
       inkscape:connector-curvature="0"
       d="m 624.6,572.8 c 0,0 101.2,176.1 101.2,522.1 V 564.7 Z"
       id="path336" />
  </g>
  <path
     style="fill:#d33b2c;fill-opacity:1;stroke-width:0.99999976"
     d="M 152.93874,84.812548 C 47.222948,84.846252 -8.8892121,169.11446 6.1762389,254.54888 14.287144,193.53408 52.650063,135.80427 155.80827,133.19458 c 24.93076,-0.80487 44.1496,7.35352 73.25,7.35352 29.1004,0 52.13805,-7.02698 73.25,-7.35352 105.51191,0 142.97271,82.19879 149.63203,121.3543 C 471.84922,154.41235 399.98025,84.812548 305.1778,84.812548 274.23125,84.317257 250.99541,96.653381 229.05827,105.7481 206.3567,96.288971 178.20519,85.292746 152.93874,84.812548 Z"
     id="path12"
     inkscape:connector-curvature="0"
     sodipodi:nodetypes="ccczccccc"
     inkscape:export-xdpi="300"
     inkscape:export-ydpi="300" />
</svg>
