<?xml version="1.0" encoding="UTF-8" standalone="no"?>
<svg
   xmlns:dc="http://purl.org/dc/elements/1.1/"
   xmlns:cc="http://creativecommons.org/ns#"
   xmlns:rdf="http://www.w3.org/1999/02/22-rdf-syntax-ns#"
   xmlns:svg="http://www.w3.org/2000/svg"
   xmlns="http://www.w3.org/2000/svg"
   xmlns:xlink="http://www.w3.org/1999/xlink"
   xmlns:sodipodi="http://sodipodi.sourceforge.net/DTD/sodipodi-0.dtd"
   xmlns:inkscape="http://www.inkscape.org/namespaces/inkscape"
   id="Layer_1"
   data-name="Layer 1"
   viewBox="0 0 458.11656 458.11656"
   version="1.1"
   sodipodi:docname="vamp_front_bkup.svg"
   width="121.21mm"
   height="121.21mm"
   inkscape:version="0.92.4 (5da689c313, 2019-01-14)">
  <metadata
     id="metadata35">
    <rdf:RDF>
      <cc:Work
         rdf:about="">
        <dc:format>image/svg+xml</dc:format>
        <dc:type
           rdf:resource="http://purl.org/dc/dcmitype/StillImage" />
        <dc:title>ghost-filled</dc:title>
      </cc:Work>
    </rdf:RDF>
  </metadata>
  <sodipodi:namedview
     pagecolor="#ffffff"
     bordercolor="#666666"
     borderopacity="1"
     objecttolerance="10"
     gridtolerance="10"
     guidetolerance="10"
     inkscape:pageopacity="0"
     inkscape:pageshadow="2"
     inkscape:window-width="1600"
     inkscape:window-height="837"
     id="namedview33"
     showgrid="false"
     inkscape:zoom="0.60144524"
     inkscape:cx="211.24264"
     inkscape:cy="293.63285"
     inkscape:window-x="-8"
     inkscape:window-y="-8"
     inkscape:window-maximized="1"
     inkscape:current-layer="Layer_1"
     units="mm"
     inkscape:snap-intersection-paths="true"
     inkscape:object-paths="true"
     inkscape:snap-nodes="false"
     inkscape:object-nodes="true"
     inkscape:snap-smooth-nodes="true" />
  <defs
     id="defs4">
    <linearGradient
       inkscape:collect="always"
       id="linearGradient3052">
      <stop
         style="stop-color:#000000;stop-opacity:1"
         offset="0"
         id="stop3048" />
      <stop
         style="stop-color:#3c0f0b;stop-opacity:0;"
         offset="1"
         id="stop3050" />
    </linearGradient>
    <style
       id="style2">.cls-1{fill:#e4e6ea;}.cls-2{opacity:0.6;}.cls-3{fill:#fff;}.cls-4{opacity:0.12;}.cls-5{fill:#757889;}.cls-6{fill:#2b374f;}.cls-7{fill:#f2496d;}</style>
    <linearGradient
       inkscape:collect="always"
       xlink:href="#linearGradient3052"
       id="linearGradient3054"
       x1="229.84792"
       y1="218.33376"
       x2="229.84792"
       y2="429.91711"
       gradientUnits="userSpaceOnUse"
       gradientTransform="translate(0.45728573)" />
  </defs>
  <title
     id="title6">ghost-filled</title>
  <path
     style="fill:url(#linearGradient3054);fill-opacity:1;stroke-width:0.99999988"
     d="m 152.7561,140.39453 c -37.41889,0.51975 -92.685608,12.71106 -125.083972,53.06445 -0.166133,0.29477 -0.323144,0.59581 -0.486328,0.89258 -4.279363,9.34005 -10.463301,49.03924 2.666015,84.19727 8.075783,21.62554 23.460364,46.05365 51.095703,70.72461 l 0.220704,-0.34375 c 31.153868,25.1043 85.950278,41.61133 148.037098,41.61133 73.35526,0 135.88252,-23.04097 162.39648,-55.71094 18.61179,-19.71442 29.93226,-38.908 36.51172,-56.28125 13.10374,-34.60079 7.37825,-73.97387 2.81836,-83.81836 -10.38464,-30.77855 -62.75007,-54.33594 -125.7207,-54.33594 -6.84944,0 -13.47699,0.34354 -20.10547,0.85938 -11.0475,0.3439 -27.61963,0.51562 -51.70313,0.51562 -29.60725,0 -49.93466,-0.34361 -62.9707,-0.6875 -5.74468,-0.51585 -11.71014,-0.6875 -17.67578,-0.6875 z"
     id="path4-6"
     inkscape:connector-curvature="0"
     sodipodi:nodetypes="cccsccscscscscc" />
  <path
     style="fill:#440a04;fill-opacity:1;stroke-width:0.99999976"
     d="m 147.03338,120.8125 c -1.88607,0.016 -3.96254,0.0571 -6.1211,0.11133 2.15347,-0.054 4.23901,-0.0954 6.1211,-0.11133 z"
     id="path3342"
     inkscape:connector-curvature="0" />
  <path
     style="fill:#440a04;fill-opacity:1;stroke-width:0.99999976"
     d="m 153.46111,120.82617 c 0.58176,0.007 1.09613,0.0176 1.62305,0.0273 -0.54572,-0.0102 -1.01821,-0.0201 -1.62305,-0.0273 z"
     id="path3340"
     inkscape:connector-curvature="0" />
  <path
     style="fill:#440a04;fill-opacity:1;stroke-width:0.99999976"
     d="m 158.35564,120.93555 c 0.32136,0.0114 0.68346,0.0233 0.96094,0.0351 -0.2936,-0.0126 -0.61777,-0.023 -0.96094,-0.0351 z"
     id="path3338"
     inkscape:connector-curvature="0" />
  <path
     style="fill:#440a04;fill-opacity:1;stroke-width:0.99999976"
     d="m 139.44353,120.96094 c -2.16854,0.0629 -4.43729,0.14815 -6.82031,0.25976 2.37849,-0.11134 4.65555,-0.19696 6.82031,-0.25976 z"
     id="path3336"
     inkscape:connector-curvature="0" />
  <path
     style="fill:#440a04;fill-opacity:1;stroke-width:0.99999976"
     d="m 128.67986,121.42578 c -0.2328,0.0133 -0.45513,0.0233 -0.68945,0.0371 0.23418,-0.0138 0.45679,-0.0238 0.68945,-0.0371 z"
     id="path3334"
     inkscape:connector-curvature="0" />
  <path
     style="fill:#440a04;fill-opacity:1;stroke-width:0.99999976"
     d="m 122.924,121.79688 c -0.44615,0.0324 -0.90315,0.0711 -1.35351,0.10546 0.44946,-0.0343 0.90824,-0.0731 1.35351,-0.10546 z"
     id="path3332"
     inkscape:connector-curvature="0" />
  <path
     style="fill:#440a04;fill-opacity:1;stroke-width:0.99999976"
     d="m 117.6076,122.22461 c -0.59318,0.0519 -1.19021,0.1086 -1.78907,0.16406 0.59794,-0.0554 1.1968,-0.11225 1.78907,-0.16406 z"
     id="path3330"
     inkscape:connector-curvature="0" />
  <path
     style="fill:#440a04;fill-opacity:1;stroke-width:0.99999976"
     d="m 112.18181,122.74609 c -0.67104,0.0694 -1.33917,0.13879 -2.01562,0.21289 0.67563,-0.074 1.34539,-0.1436 2.01562,-0.21289 z"
     id="path3328"
     inkscape:connector-curvature="0" />
  <path
     style="fill:#440a04;fill-opacity:1;stroke-width:0.99999976"
     d="m 106.23064,123.41797 c -0.55195,0.0673 -1.09787,0.12857 -1.65234,0.19922 0.5541,-0.0706 1.10076,-0.13193 1.65234,-0.19922 z"
     id="path3326"
     inkscape:connector-curvature="0" />
  <path
     style="fill:#440a04;fill-opacity:1;stroke-width:0.99999976"
     d="m 98.951353,124.38672 c -0.348832,0.0512 -0.699477,0.10948 -1.048828,0.16211 0.349103,-0.0526 0.700244,-0.11092 1.048828,-0.16211 z"
     id="path3324"
     inkscape:connector-curvature="0" />
  <path
     style="fill:#440a04;fill-opacity:1;stroke-width:0.99999976"
     d="m 93.209165,125.29492 c -0.60132,0.10132 -1.201045,0.21067 -1.802734,0.31641 0.600985,-0.10562 1.202118,-0.2152 1.802734,-0.31641 z"
     id="path3322"
     inkscape:connector-curvature="0" />
  <path
     style="fill:#440a04;fill-opacity:1;stroke-width:0.99999976"
     d="m 87.429868,126.34375 c -0.676864,0.13035 -1.351422,0.26212 -2.027343,0.39844 0.675419,-0.13622 1.350983,-0.26818 2.027343,-0.39844 z"
     id="path3320"
     inkscape:connector-curvature="0" />
  <path
     style="fill:#440a04;fill-opacity:1;stroke-width:0.99999976"
     d="m 81.523618,127.56445 c -0.712068,0.15678 -1.425359,0.30683 -2.134765,0.47071 0.709168,-0.16383 1.422937,-0.31398 2.134765,-0.47071 z"
     id="path3318"
     inkscape:connector-curvature="0" />
  <path
     style="fill:#440a04;fill-opacity:1;stroke-width:0.99999976"
     d="m 78.468931,128.25195 c -1.456831,0.34359 -2.908833,0.69542 -4.34961,1.07032 1.440175,-0.37474 2.893395,-0.72686 4.34961,-1.07032 z"
     id="path3316"
     inkscape:connector-curvature="0" />
  <path
     style="fill:#440a04;fill-opacity:1;stroke-width:0.99999976"
     d="m 73.939634,129.36914 c -1.442465,0.37687 -2.871866,0.77591 -4.292969,1.18555 1.421499,-0.40976 2.850098,-0.80858 4.292969,-1.18555 z"
     id="path3314"
     inkscape:connector-curvature="0" />
  <path
     style="fill:#440a04;fill-opacity:1;stroke-width:0.99999976"
     d="m 68.779478,130.80469 c -1.432098,0.42115 -2.851849,0.86012 -4.25586,1.3164 1.403834,-0.45623 2.823946,-0.89529 4.25586,-1.3164 z"
     id="path3312"
     inkscape:connector-curvature="0" />
  <path
     style="fill:#440a04;fill-opacity:1;stroke-width:0.99999976"
     d="m 63.976743,132.30273 c -1.315562,0.43318 -2.616655,0.88216 -3.902344,1.34766 1.285582,-0.46547 2.586893,-0.91451 3.902344,-1.34766 z"
     id="path3310"
     inkscape:connector-curvature="0" />
  <path
     style="fill:#440a04;fill-opacity:1;stroke-width:0.99999976"
     d="m 59.494321,133.85547 c -1.323936,0.48627 -2.62549,0.99537 -3.912109,1.51758 1.286881,-0.52234 2.587895,-1.0312 3.912109,-1.51758 z"
     id="path3308"
     inkscape:connector-curvature="0" />
  <path
     style="fill:#440a04;fill-opacity:1;stroke-width:0.99999976"
     d="m 54.16229,135.95703 c -0.227073,0.0957 -0.45395,0.1922 -0.679687,0.28906 0.225603,-0.0968 0.452749,-0.19344 0.679687,-0.28906 z"
     id="path3306"
     inkscape:connector-curvature="0" />
  <path
     style="fill:#440a04;fill-opacity:1;stroke-width:0.99999976"
     d="m 51.453306,137.14062 c -0.170092,0.0772 -0.342477,0.15261 -0.511719,0.23047 0.169189,-0.0778 0.34168,-0.15334 0.511719,-0.23047 z"
     id="path3304"
     inkscape:connector-curvature="0" />
  <path
     style="fill:#440a04;fill-opacity:1;stroke-width:0.99999976"
     d="m 46.226743,139.69727 c -0.307116,0.1623 -0.608602,0.32908 -0.912109,0.49414 0.303492,-0.16504 0.605009,-0.33185 0.912109,-0.49414 z"
     id="path3302"
     inkscape:connector-curvature="0" />
  <path
     style="fill:#440a04;fill-opacity:1;stroke-width:0.99999976"
     d="m 43.906431,140.97461 c -0.27472,0.1563 -0.548852,0.31202 -0.820313,0.4707 0.271576,-0.15875 0.545476,-0.31433 0.820313,-0.4707 z"
     id="path3300"
     inkscape:connector-curvature="0" />
  <path
     style="fill:#440a04;fill-opacity:1;stroke-width:0.99999976"
     d="m 41.595884,142.3418 c -0.238769,0.14687 -0.480824,0.29061 -0.716797,0.43945 0.235914,-0.1488 0.478089,-0.29262 0.716797,-0.43945 z"
     id="path3298"
     inkscape:connector-curvature="0" />
  <path
     style="fill:#440a04;fill-opacity:1;stroke-width:0.99999976"
     d="m 36.810728,145.55273 c -0.222473,0.16397 -0.438994,0.33194 -0.658203,0.49805 0.219388,-0.16624 0.435546,-0.33395 0.658203,-0.49805 z"
     id="path3296"
     inkscape:connector-curvature="0" />
  <path
     style="fill:#440a04;fill-opacity:1;stroke-width:0.99999976"
     d="m 34.820493,147.08789 c -0.212378,0.17058 -0.421905,0.34286 -0.630859,0.51563 0.208939,-0.17276 0.418496,-0.34506 0.630859,-0.51563 z"
     id="path3294"
     inkscape:connector-curvature="0" />
  <path
     style="fill:#440a04;fill-opacity:1;stroke-width:0.99999976"
     d="m 32.937681,148.67383 c -0.198461,0.17429 -0.398754,0.34699 -0.59375,0.52344 0.194876,-0.17634 0.395413,-0.34925 0.59375,-0.52344 z"
     id="path3292"
     inkscape:connector-curvature="0" />
  <path
     style="fill:#440a04;fill-opacity:1;stroke-width:0.99999976"
     d="m 30.994321,150.4668 c -0.125465,0.12208 -0.257031,0.24021 -0.380859,0.36328 0.123825,-0.12306 0.255396,-0.24121 0.380859,-0.36328 z"
     id="path3290"
     inkscape:connector-curvature="0" />
  <path
     style="fill:#440a04;fill-opacity:1;stroke-width:0.99999976"
     d="m 427.86931,152.29492 c 0.31248,0.31571 0.60467,0.64285 0.90625,0.96485 -0.3016,-0.322 -0.59376,-0.64915 -0.90625,-0.96485 z"
     id="path3288"
     inkscape:connector-curvature="0" />
  <path
     style="fill:#440a04;fill-opacity:1;stroke-width:0.99999976"
     d="m 29.021665,152.49414 c -0.141465,0.15495 -0.27514,0.31426 -0.414062,0.4707 0.138856,-0.15637 0.272665,-0.31582 0.414062,-0.4707 z"
     id="path3286"
     inkscape:connector-curvature="0" />
  <path
     style="fill:#440a04;fill-opacity:1;stroke-width:0.99999976"
     d="m 27.484556,154.27539 c -0.154252,0.18802 -0.304456,0.37825 -0.455078,0.56836 0.150589,-0.19005 0.300862,-0.38039 0.455078,-0.56836 z"
     id="path3284"
     inkscape:connector-curvature="0" />
  <path
     style="fill:#440a04;fill-opacity:1;stroke-width:0.99999976"
     d="m 430.36736,155.05078 c 1.38542,1.6441 2.64789,3.3582 3.74024,5.16211 -1.09259,-1.8043 -2.35445,-3.51769 -3.74024,-5.16211 z"
     id="path3282"
     inkscape:connector-curvature="0" />
  <path
     style="fill:#440a04;fill-opacity:1;stroke-width:0.99999976"
     d="m 26.064634,156.10938 c -0.152376,0.20819 -0.305058,0.41633 -0.453125,0.62695 0.14806,-0.21061 0.300756,-0.41878 0.453125,-0.62695 z"
     id="path3280"
     inkscape:connector-curvature="0" />
  <path
     style="fill:#440a04;fill-opacity:1;stroke-width:0.99999976"
     d="m 24.672056,158.14258 c -0.105893,0.16523 -0.217038,0.32746 -0.320313,0.49414 0.103303,-0.16672 0.21439,-0.32886 0.320313,-0.49414 z"
     id="path3278"
     inkscape:connector-curvature="0" />
  <path
     style="fill:#440a04;fill-opacity:1;stroke-width:0.99999976"
     d="m 23.215025,160.59766 c -0.06041,0.11198 -0.114574,0.22724 -0.173829,0.33984 0.05923,-0.11255 0.113448,-0.22791 0.173829,-0.33984 z"
     id="path3276"
     inkscape:connector-curvature="0" />
  <path
     style="fill:#440a04;fill-opacity:1;stroke-width:0.99999976"
     d="m 435.32439,162.37891 c 1.52321,2.93785 2.65165,6.08247 3.32813,9.44531 -0.67666,-3.36372 -1.8043,-6.5068 -3.32813,-9.44531 z"
     id="path3274"
     inkscape:connector-curvature="0" />
  <path
     style="fill:#440a04;fill-opacity:1;stroke-width:0.99999976"
     d="m 22.207212,162.62305 c -0.105576,0.22839 -0.203769,0.46054 -0.304687,0.6914 0.100943,-0.2309 0.199085,-0.46297 0.304687,-0.6914 z"
     id="path3272"
     inkscape:connector-curvature="0" />
  <path
     style="fill:#440a04;fill-opacity:1;stroke-width:0.99999976"
     d="m 87.742368,164.03711 c -2.823341,1.02404 -5.636354,2.1261 -8.429687,3.31055 2.793305,-1.18448 5.606374,-2.28648 8.429687,-3.31055 z"
     id="path3270"
     inkscape:connector-curvature="0" />
  <path
     style="fill:#440a04;fill-opacity:1;stroke-width:0.99999976"
     d="m 21.326353,164.70898 c -0.101314,0.26115 -0.201461,0.52289 -0.296875,0.78711 0.09539,-0.26412 0.195593,-0.52606 0.296875,-0.78711 z"
     id="path3268"
     inkscape:connector-curvature="0" />
  <path
     style="fill:#440a04;fill-opacity:1;stroke-width:0.99999976"
     d="m 20.515806,167.03516 c -0.06634,0.21359 -0.13669,0.42507 -0.199219,0.64062 0.06257,-0.21568 0.132839,-0.4269 0.199219,-0.64062 z"
     id="path3266"
     inkscape:connector-curvature="0" />
  <path
     style="fill:#440a04;fill-opacity:1;stroke-width:0.99999976"
     d="m 75.138853,169.18555 c -2.770829,1.26768 -5.515746,2.62031 -8.226563,4.06054 2.710792,-1.44026 5.455761,-2.79283 8.226563,-4.06054 z"
     id="path3264"
     inkscape:connector-curvature="0" />
  <path
     style="fill:#440a04;fill-opacity:1;stroke-width:0.99999976"
     d="m 18.701353,172.95898 c -0.12081,0.3434 -0.251204,0.70605 -0.378907,1.06446 0.125363,-0.35193 0.26019,-0.72702 0.378907,-1.06446 z"
     id="path3262"
     inkscape:connector-curvature="0" />
  <path
     style="fill:#440a04;fill-opacity:1;stroke-width:0.99999976"
     d="m 439.55486,175.00195 c 0.11239,0.37205 0.23353,0.76244 0.35352,1.14649 -0.12099,-0.38709 -0.24025,-0.77159 -0.35352,-1.14649 z"
     id="path3260"
     inkscape:connector-curvature="0" />
  <path
     style="fill:#440a04;fill-opacity:1;stroke-width:0.99999976"
     d="m 58.894712,177.83594 c -3.946206,2.43134 -7.792033,5.07103 -11.501953,7.93164 3.709895,-2.86063 7.555781,-5.50027 11.501953,-7.93164 z"
     id="path3258"
     inkscape:connector-curvature="0" />
  <path
     style="fill:#440a04;fill-opacity:1;stroke-width:0.99999976"
     d="m 47.392759,185.76758 c -2.472893,1.90677 -4.885599,3.91191 -7.228516,6.01953 2.34325,-2.108 4.755253,-4.11245 7.228516,-6.01953 z"
     id="path3256"
     inkscape:connector-curvature="0" />
  <path
     style="fill:#440a04;fill-opacity:1;stroke-width:0.99999976"
     d="m 440.51775,178.05078 c 0.67961,2.09296 1.48204,4.49593 2.29492,6.91602 -0.82849,-2.4662 -1.60387,-4.78812 -2.29492,-6.91602 z"
     id="path3254"
     inkscape:connector-curvature="0" />
  <path
     style="fill:#440a04;fill-opacity:1;stroke-width:0.99999976"
     d="m 15.769712,181.16797 c -0.495365,1.40346 -0.998422,2.85635 -1.519531,4.4043 0.517262,-1.53704 1.027564,-3.00971 1.519531,-4.4043 z"
     id="path3252"
     inkscape:connector-curvature="0" />
  <path
     style="fill:#440a04;fill-opacity:1;stroke-width:0.99999976"
     d="m 13.966978,186.43164 c -0.416046,1.24958 -0.832966,2.54127 -1.253907,3.88086 0.420097,-1.33736 0.838672,-2.63321 1.253907,-3.88086 z"
     id="path3250"
     inkscape:connector-curvature="0" />
  <path
     style="fill:#440a04;fill-opacity:1;stroke-width:0.99999976"
     d="m 444.15447,189 c 0.49076,1.49841 0.98653,3.03396 1.48633,4.64258 -0.50352,-1.61959 -0.99207,-3.13472 -1.48633,-4.64258 z"
     id="path3248"
     inkscape:connector-curvature="0" />
  <path
     style="fill:#440a04;fill-opacity:1;stroke-width:0.99999976"
     d="m 445.6408,193.64258 c 0.52102,1.67692 1.04243,3.42505 1.55664,5.22265 -0.51426,-1.79645 -1.03561,-3.54675 -1.55664,-5.22265 z"
     id="path3246"
     inkscape:connector-curvature="0" />
  <path
     style="fill:#440a04;fill-opacity:1;stroke-width:0.99999976"
     d="m 12.269712,191.74609 c -0.393424,1.28217 -0.78186,2.60489 -1.169922,3.96485 0.387381,-1.35814 0.777181,-2.68429 1.169922,-3.96485 z"
     id="path3244"
     inkscape:connector-curvature="0" />
  <path
     style="fill:#440a04;fill-opacity:1;stroke-width:0.99999976"
     d="m 36.701353,195.02734 c -1.135376,1.10574 -2.251036,2.23604 -3.347657,3.39454 1.09631,-1.15815 2.21457,-2.28912 3.34961,-3.39454 -3.42e-4,3.4e-4 -0.0016,-3.3e-4 -0.002,0 z"
     id="path3242"
     inkscape:connector-curvature="0" />
  <path
     style="fill:#440a04;fill-opacity:1;stroke-width:0.99999976"
     d="m 10.625181,197.375 c -0.114363,0.41451 -0.226599,0.83255 -0.339844,1.25391 0.112936,-0.4204 0.225795,-0.84033 0.339844,-1.25391 z"
     id="path3240"
     inkscape:connector-curvature="0" />
  <path
     style="fill:#440a04;fill-opacity:1;stroke-width:0.99999976"
     d="m 33.353696,198.42383 c -1.096281,1.15817 -2.173465,2.34278 -3.228515,3.55469 1.055363,-1.21228 2.131898,-2.39619 3.228515,-3.55469 z"
     id="path3238"
     inkscape:connector-curvature="0" />
  <path
     style="fill:#440a04;fill-opacity:1;stroke-width:0.99999976"
     d="m 30.125181,201.97852 c -1.055365,1.21227 -2.089953,2.45169 -3.101563,3.71875 1.01161,-1.26706 2.046199,-2.50648 3.101563,-3.71875 z"
     id="path3236"
     inkscape:connector-curvature="0" />
  <path
     style="fill:#440a04;fill-opacity:1;stroke-width:0.99999976"
     d="m 447.68767,200.61328 c 0.25706,0.92853 0.51106,1.8724 0.76172,2.83203 -0.25095,-0.95992 -0.50437,-1.90324 -0.76172,-2.83203 z"
     id="path3234"
     inkscape:connector-curvature="0" />
  <path
     style="fill:#440a04;fill-opacity:1;stroke-width:0.99999976"
     d="m 9.3732281,202.15625 c -0.099599,0.401 -0.1987577,0.80235 -0.296875,1.20898 0.098018,-0.40644 0.1973756,-0.80816 0.296875,-1.20898 z"
     id="path3232"
     inkscape:connector-curvature="0" />
  <path
     style="fill:#440a04;fill-opacity:1;stroke-width:0.99999976"
     d="m 448.99041,205.55859 c 0.16529,0.66379 0.32748,1.3395 0.48828,2.01758 -0.16114,-0.67892 -0.32264,-1.35299 -0.48828,-2.01758 z"
     id="path3230"
     inkscape:connector-curvature="0" />
  <path
     style="fill:#440a04;fill-opacity:1;stroke-width:0.99999976"
     d="m 8.2286969,207.05664 c -0.1143573,0.52082 -0.2266227,1.043 -0.3378906,1.57227 0.1110834,-0.52871 0.2237241,-1.05199 0.3378906,-1.57227 z"
     id="path3228"
     inkscape:connector-curvature="0" />
  <path
     style="fill:#440a04;fill-opacity:1;stroke-width:0.99999976"
     d="m 26.279478,207.36719 c -0.08877,0.2148 -0.176074,0.45412 -0.265625,0.68359 0.08912,-0.22834 0.17728,-0.46977 0.265625,-0.68359 z"
     id="path3226"
     inkscape:connector-curvature="0" />
  <path
     style="fill:#440a04;fill-opacity:1;stroke-width:0.99999976"
     d="m 431.25017,208.5625 c 0.0737,0.18749 0.14705,0.38989 0.22071,0.58594 -0.0742,-0.19755 -0.14646,-0.39708 -0.22071,-0.58594 z"
     id="path3224"
     inkscape:connector-curvature="0" />
  <path
     style="fill:#440a04;fill-opacity:1;stroke-width:0.99999976"
     d="m 25.500181,209.43945 c -0.09656,0.27552 -0.190843,0.5559 -0.28711,0.84766 0.09577,-0.2902 0.191049,-0.57354 0.28711,-0.84766 z"
     id="path3222"
     inkscape:connector-curvature="0" />
  <path
     style="fill:#440a04;fill-opacity:1;stroke-width:0.99999976"
     d="m 449.94353,209.59766 c 0.1523,0.67691 0.3064,1.3484 0.45313,2.03906 -0.1469,-0.69081 -0.30065,-1.362 -0.45313,-2.03906 z"
     id="path3220"
     inkscape:connector-curvature="0" />
  <path
     style="fill:#440a04;fill-opacity:1;stroke-width:0.99999976"
     d="m 432.07439,210.86133 c 0.0665,0.20047 0.13329,0.39615 0.19922,0.60351 -0.0661,-0.20796 -0.13258,-0.40249 -0.19922,-0.60351 z"
     id="path3218"
     inkscape:connector-curvature="0" />
  <path
     style="fill:#440a04;fill-opacity:1;stroke-width:0.99999976"
     d="m 24.705259,211.92188 c -0.09283,0.31374 -0.185946,0.61459 -0.277344,0.94335 0.09111,-0.3277 0.184809,-0.63057 0.277344,-0.94335 z"
     id="path3216"
     inkscape:connector-curvature="0" />
  <path
     style="fill:#440a04;fill-opacity:1;stroke-width:0.99999976"
     d="m 7.0372906,212.92578 c -0.085347,0.46232 -0.1616052,0.94001 -0.2441406,1.4082 0.082401,-0.46774 0.1589333,-0.94631 0.2441406,-1.4082 z"
     id="path3214"
     inkscape:connector-curvature="0" />
  <path
     style="fill:#440a04;fill-opacity:1;stroke-width:0.99999976"
     d="m 451.12908,215.28906 c 0.11686,0.61584 0.22642,1.24498 0.33789,1.8711 -0.11161,-0.62632 -0.22089,-1.25506 -0.33789,-1.8711 z"
     id="path3212"
     inkscape:connector-curvature="0" />
  <path
     style="fill:#440a04;fill-opacity:1;stroke-width:0.99999976"
     d="m 433.74236,216.97852 c 0.0506,0.22914 0.0971,0.46903 0.14649,0.70312 -0.0495,-0.23495 -0.0957,-0.47316 -0.14649,-0.70312 z"
     id="path3210"
     inkscape:connector-curvature="0" />
  <path
     style="fill:#440a04;fill-opacity:1;stroke-width:0.99999976"
     d="m 6.1994,217.92578 c -0.111341,0.71891 -0.22622,1.43226 -0.3300781,2.16406 0.1037726,-0.73175 0.2188244,-1.44519 0.3300781,-2.16406 z"
     id="path3208"
     inkscape:connector-curvature="0" />
  <path
     style="fill:#440a04;fill-opacity:1;stroke-width:0.99999976"
     d="m 23.039243,218.89453 c -0.06727,0.35847 -0.12728,0.7364 -0.191406,1.10547 0.06402,-0.36836 0.124262,-0.74767 0.191406,-1.10547 z"
     id="path3206"
     inkscape:connector-curvature="0" />
  <path
     style="fill:#440a04;fill-opacity:1;stroke-width:0.99999976"
     d="m 451.90642,219.74805 c 0.10466,0.64752 0.21045,1.29308 0.3086,1.95117 -0.0983,-0.65834 -0.20379,-1.30341 -0.3086,-1.95117 z"
     id="path3204"
     inkscape:connector-curvature="0" />
  <path
     style="fill:#440a04;fill-opacity:1;stroke-width:0.99999976"
     d="m 434.39861,220.33398 c 0.0417,0.23872 0.0848,0.47382 0.125,0.7168 -0.0403,-0.24384 -0.0832,-0.47725 -0.125,-0.7168 z"
     id="path3202"
     inkscape:connector-curvature="0" />
  <path
     style="fill:#440a04;fill-opacity:1;stroke-width:0.99999976"
     d="m 5.8283063,220.39062 c -0.1689728,1.20578 -0.329761,2.42755 -0.4765626,3.66797 0.146674,-1.24042 0.3077205,-2.46218 0.4765626,-3.66797 z"
     id="path3200"
     inkscape:connector-curvature="0" />
  <path
     style="fill:#440a04;fill-opacity:1;stroke-width:0.99999976"
     d="m 22.465025,222.39844 c -0.102104,0.7053 -0.202324,1.41028 -0.291016,2.14844 0.08862,-0.73738 0.189009,-1.44385 0.291016,-2.14844 z"
     id="path3198"
     inkscape:connector-curvature="0" />
  <path
     style="fill:#440a04;fill-opacity:1;stroke-width:0.99999976"
     d="m 5.3517437,224.06055 c -0.3034739,2.56449 -0.5557263,5.20286 -0.75,7.91406 0.1940365,-2.71141 0.4467656,-5.34935 0.75,-7.91406 z"
     id="path3196"
     inkscape:connector-curvature="0" />
  <path
     style="fill:#440a04;fill-opacity:1;stroke-width:0.99999976"
     d="m 22.132993,224.86719 c -0.116356,0.99815 -0.216444,2.02853 -0.304687,3.08398 0.08824,-1.05496 0.188356,-2.08626 0.304687,-3.08398 z"
     id="path3194"
     inkscape:connector-curvature="0" />
  <path
     style="fill:#440a04;fill-opacity:1;stroke-width:0.99999976"
     d="m 452.77166,225.77148 c 0.0848,0.68866 0.15564,1.39613 0.23242,2.09571 -0.0769,-0.69988 -0.14751,-1.40676 -0.23242,-2.09571 z"
     id="path3192"
     inkscape:connector-curvature="0" />
  <path
     style="fill:#440a04;fill-opacity:1;stroke-width:0.99999976"
     d="m 435.42596,228.51172 c 0.0543,0.68368 0.10383,1.37567 0.14453,2.08203 -0.0406,-0.7068 -0.0903,-1.39794 -0.14453,-2.08203 z"
     id="path3190"
     inkscape:connector-curvature="0" />
  <path
     style="fill:#440a04;fill-opacity:1;stroke-width:0.99999976"
     d="m 21.775571,228.62305 c -0.08194,1.06887 -0.154211,2.15546 -0.203125,3.27929 0.04894,-1.12322 0.12119,-2.21097 0.203125,-3.27929 z"
     id="path3188"
     inkscape:connector-curvature="0" />
  <path
     style="fill:#440a04;fill-opacity:1;stroke-width:0.99999976"
     d="m 453.28142,230.58398 c 1.04344,11.30021 0.99723,23.96494 -1.02343,38.0625 2.02084,-14.09995 2.06856,-26.76156 1.02343,-38.0625 z"
     id="path3186"
     inkscape:connector-curvature="0" />
  <path
     style="fill:#440a04;fill-opacity:1;stroke-width:0.99999976"
     d="m 452.25799,268.64648 c -0.4624,3.22599 -1.0284,6.52679 -1.70703,9.90235 0.67853,-3.37509 1.24474,-6.67684 1.70703,-9.90235 z"
     id="path3184"
     inkscape:connector-curvature="0" />
  <path
     style="fill:#440a04;fill-opacity:1;stroke-width:0.99999976"
     d="m 435.62908,231.77539 c 0.0318,0.69794 0.0568,1.40644 0.0742,2.125 -0.0172,-0.71933 -0.0426,-1.42633 -0.0742,-2.125 z"
     id="path3180"
     inkscape:connector-curvature="0" />
  <path
     style="fill:#440a04;fill-opacity:1;stroke-width:0.99999976"
     d="m 21.56854,232.04297 c -0.0456,1.08167 -0.06872,2.19573 -0.08008,3.32617 0.01141,-1.1302 0.03444,-2.24472 0.08008,-3.32617 z"
     id="path3178"
     inkscape:connector-curvature="0" />
  <path
     style="fill:#440a04;fill-opacity:1;stroke-width:0.99999976"
     d="m 4.5880719,232.17578 c -0.087849,1.24643 -0.1609196,2.5081 -0.2226563,3.78516 0.061605,-1.27623 0.1349785,-2.53951 0.2226563,-3.78516 z"
     id="path3176"
     inkscape:connector-curvature="0" />
  <path
     style="fill:#440a04;fill-opacity:1;stroke-width:0.99999976"
     d="m 435.72674,235.24609 c 0.008,0.69907 0.005,1.40975 -0.002,2.12696 0.007,-0.7173 0.009,-1.42779 0.002,-2.12696 z"
     id="path3174"
     inkscape:connector-curvature="0" />
  <path
     style="fill:#440a04;fill-opacity:1;stroke-width:0.99999976"
     d="m 21.480649,236.18359 c -0.0027,1.16176 0.01343,2.34482 0.05078,3.55469 -0.03731,-1.20994 -0.0535,-2.39286 -0.05078,-3.55469 z"
     id="path3172"
     inkscape:connector-curvature="0" />
  <path
     style="fill:#440a04;fill-opacity:1;stroke-width:0.99999976"
     d="m 4.3439313,236.39844 c -0.1260125,2.75205 -0.1909183,5.57275 -0.1816407,8.46484 -0.00944,-2.89197 0.055829,-5.71288 0.1816407,-8.46484 z"
     id="path3170"
     inkscape:connector-curvature="0" />
  <path
     style="fill:#440a04;fill-opacity:1;stroke-width:0.99999976"
     d="m 4.1622906,244.86328 c 0.00442,1.37718 0.028183,2.77301 0.066406,4.18164 -0.038289,-1.40859 -0.061913,-2.8045 -0.066406,-4.18164 z"
     id="path3168"
     inkscape:connector-curvature="0" />
  <path
     style="fill:#440a04;fill-opacity:1;stroke-width:0.99999976"
     d="m 435.69549,239.05078 c -0.0188,0.73589 -0.045,1.47893 -0.0801,2.23242 0.0352,-0.75355 0.0611,-1.49647 0.0801,-2.23242 z"
     id="path3166"
     inkscape:connector-curvature="0" />
  <path
     style="fill:#440a04;fill-opacity:1;stroke-width:0.99999976"
     d="m 21.552915,240.30664 c 0.04073,1.1297 0.100877,2.27994 0.179688,3.44922 -0.07875,-1.16893 -0.138993,-2.31985 -0.179688,-3.44922 z"
     id="path3164"
     inkscape:connector-curvature="0" />
  <path
     style="fill:#440a04;fill-opacity:1;stroke-width:0.99999976"
     d="m 435.5451,242.63867 c -0.0453,0.76519 -0.10311,1.54206 -0.16602,2.32422 0.0631,-0.78261 0.1206,-1.5586 0.16602,-2.32422 z"
     id="path3162"
     inkscape:connector-curvature="0" />
  <path
     style="fill:#440a04;fill-opacity:1;stroke-width:0.99999976"
     d="m 21.775571,244.41211 c 0.09131,1.24496 0.207697,2.51361 0.345704,3.80078 -0.137885,-1.28653 -0.254472,-2.55642 -0.345704,-3.80078 z"
     id="path3160"
     inkscape:connector-curvature="0" />
  <path
     style="fill:#440a04;fill-opacity:1;stroke-width:0.99999976"
     d="m 435.19549,246.99805 c -0.071,0.71813 -0.14772,1.44059 -0.23438,2.17187 0.0868,-0.73126 0.16322,-1.45376 0.23438,-2.17187 z"
     id="path3158"
     inkscape:connector-curvature="0" />
  <path
     style="fill:#440a04;fill-opacity:1;stroke-width:0.99999976"
     d="m 22.234556,249.20898 c 0.153087,1.3196 0.32135,2.65283 0.527343,4.01368 -0.205916,-1.36064 -0.374319,-2.69429 -0.527343,-4.01368 z"
     id="path3156"
     inkscape:connector-curvature="0" />
  <path
     style="fill:#440a04;fill-opacity:1;stroke-width:0.99999976"
     d="m 4.2482281,249.69922 c 0.040172,1.30157 0.095271,2.6153 0.1660156,3.94336 -0.070768,-1.32767 -0.1257947,-2.64216 -0.1660156,-3.94336 z"
     id="path3154"
     inkscape:connector-curvature="0" />
  <path
     style="fill:#440a04;fill-opacity:1;stroke-width:0.99999976"
     d="m 434.76189,250.75391 c -0.10353,0.78025 -0.21971,1.571 -0.34179,2.36523 0.12226,-0.79458 0.2381,-1.58464 0.34179,-2.36523 z"
     id="path3152"
     inkscape:connector-curvature="0" />
  <path
     style="fill:#440a04;fill-opacity:1;stroke-width:0.99999976"
     d="m 4.4376813,254.09766 c 0.1681453,3.01045 0.4172674,6.08979 0.7558593,9.23437 -0.3387882,-3.14545 -0.5875683,-6.22311 -0.7558593,-9.23437 z"
     id="path3150"
     inkscape:connector-curvature="0" />
  <path
     style="fill:#440a04;fill-opacity:1;stroke-width:0.99999976"
     d="m 434.04705,255.38672 c -0.1295,0.74503 -0.26561,1.49367 -0.41211,2.25 0.14664,-0.75651 0.28248,-1.50479 0.41211,-2.25 z"
     id="path3148"
     inkscape:connector-curvature="0" />
  <path
     style="fill:#440a04;fill-opacity:1;stroke-width:0.99999976"
     d="m 23.209165,255.93945 c 0.0482,0.27527 0.101874,0.55328 0.152344,0.83008 -0.05039,-0.27642 -0.104211,-0.55518 -0.152344,-0.83008 z"
     id="path3146"
     inkscape:connector-curvature="0" />
  <path
     style="fill:#440a04;fill-opacity:1;stroke-width:0.99999976"
     d="m 23.759946,258.86523 c 0.04836,0.24106 0.09833,0.48246 0.148438,0.72461 -0.05011,-0.24217 -0.10008,-0.48353 -0.148438,-0.72461 z"
     id="path3144"
     inkscape:connector-curvature="0" />
  <path
     style="fill:#440a04;fill-opacity:1;stroke-width:0.99999976"
     d="m 433.29314,259.34375 c -0.18317,0.87742 -0.38094,1.76271 -0.58789,2.6543 0.207,-0.8914 0.40465,-1.77706 0.58789,-2.6543 z"
     id="path3142"
     inkscape:connector-curvature="0" />
  <path
     style="fill:#440a04;fill-opacity:1;stroke-width:0.99999976"
     d="m 24.396665,261.84375 c 0.05283,0.23318 0.103728,0.46509 0.158203,0.69922 -0.05446,-0.23408 -0.10539,-0.46609 -0.158203,-0.69922 z"
     id="path3140"
     inkscape:connector-curvature="0" />
  <path
     style="fill:#440a04;fill-opacity:1;stroke-width:0.99999976"
     d="m 5.2384625,263.73633 c 0.1582657,1.43984 0.3363948,2.89374 0.5332031,4.36133 -0.1968415,-1.46756 -0.3748935,-2.92151 -0.5332031,-4.36133 z"
     id="path3138"
     inkscape:connector-curvature="0" />
  <path
     style="fill:#440a04;fill-opacity:1;stroke-width:0.99999976"
     d="m 432.16814,264.20703 c -0.19712,0.78362 -0.401,1.57154 -0.61718,2.36524 0.21643,-0.79433 0.41984,-1.58101 0.61718,-2.36524 z"
     id="path3136"
     inkscape:connector-curvature="0" />
  <path
     style="fill:#440a04;fill-opacity:1;stroke-width:0.99999976"
     d="m 26.082212,268.45508 c 0.06509,0.22895 0.136432,0.45971 0.203125,0.68945 -0.06666,-0.22965 -0.138068,-0.46059 -0.203125,-0.68945 z"
     id="path3134"
     inkscape:connector-curvature="0" />
  <path
     style="fill:#440a04;fill-opacity:1;stroke-width:0.99999976"
     d="m 431.00994,268.50195 c -0.24062,0.83144 -0.49752,1.67002 -0.75977,2.51172 0.26225,-0.8415 0.51914,-1.68047 0.75977,-2.51172 z"
     id="path3132"
     inkscape:connector-curvature="0" />
  <path
     style="fill:#440a04;fill-opacity:1;stroke-width:0.99999976"
     d="m 5.840025,268.60156 c 0.4443655,3.24611 0.9822203,6.55572 1.6289063,9.93555 -0.6465328,-3.37905 -1.1845543,-6.69013 -1.6289063,-9.93555 z"
     id="path3130"
     inkscape:connector-curvature="0" />
  <path
     style="fill:#440a04;fill-opacity:1;stroke-width:0.99999976"
     d="m 26.996275,271.50977 c 0.0865,0.27807 0.174781,0.55678 0.263671,0.83593 -0.08889,-0.27915 -0.177174,-0.55786 -0.263671,-0.83593 z"
     id="path3128"
     inkscape:connector-curvature="0" />
  <path
     style="fill:#440a04;fill-opacity:1;stroke-width:0.99999976"
     d="m 429.44549,273.50391 c -0.29023,0.86987 -0.58822,1.74314 -0.90235,2.62304 0.31411,-0.87977 0.61212,-1.75329 0.90235,-2.62304 z"
     id="path3126"
     inkscape:connector-curvature="0" />
  <path
     style="fill:#440a04;fill-opacity:1;stroke-width:0.99999976"
     d="m 28.039243,274.71484 c 0.08093,0.23849 0.15949,0.47562 0.242188,0.71485 -0.08268,-0.2392 -0.161271,-0.47639 -0.242188,-0.71485 z"
     id="path12-2"
     inkscape:connector-curvature="0" />
  <path
     inkscape:connector-curvature="0"
     d="M 67.114904,129.04574 H 392.58906 v 50.09951 H 67.114904 Z"
     class="st3"
     style="fill:#eb6841;fill-opacity:1;stroke-width:0.99999988"
     id="path8"
     sodipodi:nodetypes="ccccc" />
  <g
     id="g3367">
    <g
       transform="translate(3.9212284)"
       id="g3362">
      <path
         inkscape:connector-curvature="0"
         class="st4"
         d="m 351.04686,161.98377 v 1.08772 c 0,-17.86966 14.45112,-27.52078 32.32079,-27.52078 15.33981,5.22099 15.29519,15.05401 20.32078,27.52078 1.69074,12.04537 5.81314,21.44897 0.12902,35.42884 0,0 -30.4419,13.56224 -45.71651,9.25558 -5.86918,-13.7121 -8.23035,-30.00032 -7.05408,-45.77214 z"
         style="fill:#ffffff;stroke-width:0.99999994"
         id="path10-0-4-2"
         sodipodi:nodetypes="ccccccc" />
      <path
         inkscape:connector-curvature="0"
         class="st4"
         d="m 99.227213,161.98377 v 1.08772 c 0,-17.86966 -14.451115,-27.52078 -32.320785,-27.52078 -15.339808,5.22099 -15.295189,15.05401 -20.320777,27.52078 -1.690746,12.04537 -5.813147,21.44897 -0.129025,35.42884 0,0 30.441899,13.56224 45.71651,9.25558 5.869177,-13.7121 8.230344,-30.00032 7.054077,-45.77214 z"
         style="fill:#ffffff;stroke-width:0.99999994"
         id="path10-0-4"
         sodipodi:nodetypes="ccccccc" />
    </g>
  </g>
  <path
     style="fill:#ffffff;stroke-width:0.99999988"
     d="m 301.90508,211.19336 c 0,0 18.91748,41.43967 27.51484,50.20898 22.30882,-33.10041 27.85547,-69.53919 27.85547,-106.60742 l -17.53906,-6.70703 c -18.74225,-7.22178 -40.23125,6.7064 -40.23125,26.82422 -2.30428,14.68738 0.49911,26.28027 2.4,36.28125 z"
     id="path3399"
     inkscape:connector-curvature="0"
     sodipodi:nodetypes="cccccc" />
  <path
     style="fill:#ffffff;stroke-width:0.99999988"
     d="m 264.93945,140.35156 c -19.77393,0 -35.76367,15.98974 -35.76367,35.76367 -1.16345,22.02752 -1.42874,30.53271 6.36133,49.69336 l 62.76758,-1.54687 c 3.85216,-15.76035 2.40039,-32.05629 2.40039,-48.14649 0,-19.77393 -15.99169,-35.76367 -35.76563,-35.76367 z"
     id="path3386"
     inkscape:connector-curvature="0"
     sodipodi:nodetypes="sccccs" />
  <path
     style="fill:#ffffff;stroke-width:0.99999988"
     d="m 156.44453,211.19336 c 3.09237,-16.73724 1.09535,-35.28743 1.2,-35.07813 v -1.20312 c 0,-20.11782 -20.289,-34.046 -39.03125,-26.82422 l -17.53906,6.70703 c -1.938142,42.7928 8.28549,79.77253 27.85547,106.60742 15.00429,-17.49828 20.21197,-31.91679 27.51484,-50.20898 z"
     id="path3391"
     inkscape:connector-curvature="0"
     sodipodi:nodetypes="ccscccc" />
  <path
     style="fill:#ffffff;stroke-width:0.99999988"
     d="m 193.41016,140.35156 c -19.77393,0 -35.76563,15.98974 -35.76563,35.76367 -0.63791,16.30251 -0.53418,32.16991 2.40039,48.14649 l 62.76758,1.54687 c 9.13357,-17.20604 6.36328,-30.40947 6.36328,-49.69336 0,-19.77393 -15.99169,-35.76367 -35.76562,-35.76367 z"
     id="path10-0"
     inkscape:connector-curvature="0"
     sodipodi:nodetypes="sccccs" />
  <path
     style="fill:#ef2310;fill-opacity:1;stroke-width:0.99999976"
     d="m 155.99186,108.81055 c -1.63968,-0.0137 -3.4647,-0.0149 -5.45312,0.002 -34.46602,0.29251 -117.786142,6.0913 -127.300782,49.12109 -5.116502,15.81644 -22.84224376,41.33551 -12.261719,96.61524 8.216669,-49.15863 7.842811,-25.71464 19.552734,-48.85156 38.190815,-56.34116 87.786027,-64.78196 125.279297,-65.30274 5.96564,0 11.9311,0.17165 17.67578,0.6875 11.85995,0.31287 30.14672,0.61215 55.57422,0.66602 25.4275,-0.0539 43.71427,-0.35315 55.57422,-0.66602 5.74468,-0.51585 11.71014,-0.6875 17.67578,-0.6875 37.49327,0.52078 87.08849,8.96158 125.27929,65.30274 11.70994,23.13692 11.33607,-0.30707 19.55274,48.85156 10.58052,-55.27973 -7.14522,-80.7988 -12.26172,-96.61524 -9.51464,-43.02979 -92.83476,-48.82858 -127.30078,-49.12109 -1.98842,-0.0169 -3.81345,-0.0156 -5.45313,-0.002 -4.91906,0.041 -8.16358,0.19236 -9.0957,0.28906 -45.24398,1.38671 -81.14329,1.61173 -127.94141,0 -0.93212,-0.0967 -4.17664,-0.24803 -9.0957,-0.28906 z"
     id="path12"
     inkscape:connector-curvature="0"
     sodipodi:nodetypes="cccccccccccccccccc" />
</svg>
